<svg xmlns="http://www.w3.org/2000/svg" xmlns:xlink="http://www.w3.org/1999/xlink" width="500" zoomAndPan="magnify" viewBox="0 0 375 374.999991" height="500" preserveAspectRatio="xMidYMid meet" version="1.0"><defs><g/><clipPath id="0cae68492b"><path d="M 48 187.167969 L 327 187.167969 L 327 191.667969 L 48 191.667969 Z M 48 187.167969 " clip-rule="nonzero"/></clipPath></defs><g fill="#fffefd" fill-opacity="1"><g transform="translate(113.851771, 178.666749)"><g><path d="M 2.546875 -57.609375 L 18.4375 -57.609375 C 22.550781 -57.609375 25.632812 -56.46875 27.6875 -54.1875 C 29.75 -51.90625 30.800781 -48.53125 30.84375 -44.0625 L 30.984375 -17.09375 C 31.023438 -11.414062 30.039062 -7.144531 28.03125 -4.28125 C 26.019531 -1.425781 22.691406 0 18.046875 0 L 2.546875 0 Z M 16.15625 -10.1875 C 18.257812 -10.1875 19.3125 -11.21875 19.3125 -13.28125 L 19.3125 -42.984375 C 19.3125 -44.285156 19.207031 -45.257812 19 -45.90625 C 18.800781 -46.550781 18.429688 -46.984375 17.890625 -47.203125 C 17.359375 -47.429688 16.535156 -47.546875 15.421875 -47.546875 L 14.15625 -47.546875 L 14.15625 -10.1875 Z M 16.15625 -10.1875 "/></g></g></g><g fill="#fffefd" fill-opacity="1"><g transform="translate(146.912112, 178.666749)"><g><path d="M 16.09375 0.53125 C 11.039062 0.53125 7.414062 -0.851562 5.21875 -3.625 C 3.03125 -6.394531 1.9375 -10.53125 1.9375 -16.03125 L 1.9375 -35.75 C 1.9375 -40.257812 3.234375 -43.695312 5.828125 -46.0625 C 8.421875 -48.4375 12.046875 -49.625 16.703125 -49.625 C 26.128906 -49.625 30.84375 -45 30.84375 -35.75 L 30.84375 -32.1875 C 30.84375 -28.613281 30.800781 -25.707031 30.71875 -23.46875 L 13.6875 -23.46875 L 13.6875 -13.953125 C 13.6875 -12.253906 13.863281 -10.921875 14.21875 -9.953125 C 14.570312 -8.992188 15.332031 -8.515625 16.5 -8.515625 C 17.394531 -8.515625 18.03125 -8.78125 18.40625 -9.3125 C 18.789062 -9.851562 19.015625 -10.46875 19.078125 -11.15625 C 19.148438 -11.851562 19.1875 -12.875 19.1875 -14.21875 L 19.1875 -18.984375 L 30.84375 -18.984375 L 30.84375 -16.15625 C 30.84375 -10.4375 29.734375 -6.222656 27.515625 -3.515625 C 25.304688 -0.816406 21.5 0.53125 16.09375 0.53125 Z M 19.1875 -29.3125 L 19.1875 -35.609375 C 19.1875 -39.140625 18.3125 -40.90625 16.5625 -40.90625 C 14.59375 -40.90625 13.609375 -39.140625 13.609375 -35.609375 L 13.609375 -29.3125 Z M 19.1875 -29.3125 "/></g></g></g><g fill="#fffefd" fill-opacity="1"><g transform="translate(179.637161, 178.666749)"><g><path d="M 2.28125 -52.375 L 2.28125 -60.5625 L 14.015625 -60.5625 L 14.015625 -52.375 Z M 2.28125 0 L 2.28125 -49.09375 L 14.015625 -49.09375 L 14.015625 0 Z M 2.28125 0 "/></g></g></g><g fill="#fffefd" fill-opacity="1"><g transform="translate(195.932628, 178.666749)"><g><path d="M 15.828125 0.53125 C 6.128906 0.53125 1.28125 -4.382812 1.28125 -14.21875 L 1.34375 -18.109375 L 13.078125 -18.109375 L 13.140625 -12.34375 C 13.140625 -11.175781 13.363281 -10.289062 13.8125 -9.6875 C 14.257812 -9.082031 15 -8.78125 16.03125 -8.78125 C 17.59375 -8.78125 18.375 -10.054688 18.375 -12.609375 C 18.375 -14.484375 18.003906 -15.957031 17.265625 -17.03125 C 16.523438 -18.101562 15.351562 -19.242188 13.75 -20.453125 L 7.515625 -25.28125 C 5.367188 -26.9375 3.820312 -28.644531 2.875 -30.40625 C 1.9375 -32.175781 1.46875 -34.671875 1.46875 -37.890625 C 1.46875 -40.390625 2.128906 -42.519531 3.453125 -44.28125 C 4.773438 -46.050781 6.53125 -47.382812 8.71875 -48.28125 C 10.90625 -49.175781 13.34375 -49.625 16.03125 -49.625 C 25.550781 -49.625 30.3125 -44.882812 30.3125 -35.40625 L 30.3125 -34.46875 L 18.171875 -34.46875 L 18.171875 -36.34375 C 18.171875 -37.507812 17.976562 -38.503906 17.59375 -39.328125 C 17.21875 -40.160156 16.582031 -40.578125 15.6875 -40.578125 C 14.882812 -40.578125 14.269531 -40.34375 13.84375 -39.875 C 13.425781 -39.40625 13.21875 -38.765625 13.21875 -37.953125 C 13.21875 -36.171875 13.910156 -34.785156 15.296875 -33.796875 L 22.53125 -28.5 C 25.125 -26.582031 27.113281 -24.492188 28.5 -22.234375 C 29.882812 -19.972656 30.578125 -17.125 30.578125 -13.6875 C 30.578125 -9.125 29.28125 -5.613281 26.6875 -3.15625 C 24.09375 -0.695312 20.472656 0.53125 15.828125 0.53125 Z M 15.828125 0.53125 "/></g></g></g><g fill="#fffefd" fill-opacity="1"><g transform="translate(227.785888, 178.666749)"><g><path d="M 16.625 0.53125 C 6.832031 0.53125 1.9375 -4.539062 1.9375 -14.6875 L 1.9375 -34.40625 C 1.9375 -39.050781 3.242188 -42.75 5.859375 -45.5 C 8.484375 -48.25 12.070312 -49.625 16.625 -49.625 C 21.1875 -49.625 24.773438 -48.25 27.390625 -45.5 C 30.003906 -42.75 31.3125 -39.050781 31.3125 -34.40625 L 31.3125 -14.6875 C 31.3125 -4.539062 26.414062 0.53125 16.625 0.53125 Z M 16.625 -8.515625 C 17.570312 -8.515625 18.265625 -8.847656 18.703125 -9.515625 C 19.148438 -10.191406 19.375 -11.109375 19.375 -12.265625 L 19.375 -36.28125 C 19.375 -39.144531 18.457031 -40.578125 16.625 -40.578125 C 14.789062 -40.578125 13.875 -39.144531 13.875 -36.28125 L 13.875 -12.265625 C 13.875 -11.109375 14.097656 -10.191406 14.546875 -9.515625 C 14.992188 -8.847656 15.6875 -8.515625 16.625 -8.515625 Z M 16.625 -8.515625 "/></g></g></g><g clip-path="url(#0cae68492b)"><path fill="#fffefd" d="M 326.875 189.492188 C 326.875 189.492188 313.851562 189.183594 293.421875 188.78125 C 279.527344 188.5 262.21875 188.160156 243.25 187.851562 C 234.261719 187.707031 224.90625 187.566406 215.375 187.460938 C 206.191406 187.355469 196.84375 187.257812 187.496094 187.214844 C 180.035156 187.179688 172.570312 187.167969 165.195312 187.214844 C 153.730469 187.28125 142.476562 187.445312 131.746094 187.613281 C 119.789062 187.796875 108.496094 188.027344 98.292969 188.25 C 68.515625 188.90625 48.121094 189.492188 48.121094 189.492188 C 48.121094 189.492188 68.515625 190.082031 98.292969 190.734375 C 108.496094 190.957031 119.789062 191.1875 131.746094 191.375 C 142.476562 191.542969 153.730469 191.703125 165.195312 191.773438 C 172.570312 191.816406 180.035156 191.800781 187.496094 191.769531 C 196.84375 191.726562 206.191406 191.632812 215.375 191.527344 C 224.90625 191.417969 234.261719 191.277344 243.25 191.128906 C 262.21875 190.820312 279.527344 190.484375 293.421875 190.207031 C 313.851562 189.800781 326.875 189.492188 326.875 189.492188 Z M 326.875 189.492188 " fill-opacity="1" fill-rule="evenodd"/></g><g fill="#f8c322" fill-opacity="1"><g transform="translate(60.278903, 207.35883)"><g><path d="M 5.710938 0.117188 C 7.75 0.117188 10.09375 -1.136719 10.09375 -3.550781 L 10.09375 -12.015625 L 8.363281 -12.015625 L 8.363281 -3.570312 C 8.363281 -2.261719 6.949219 -1.597656 5.710938 -1.597656 C 4.453125 -1.597656 3.042969 -2.242188 3.042969 -3.550781 L 3.042969 -12.015625 L 1.308594 -12.015625 L 1.308594 -3.570312 C 1.308594 -1.136719 3.621094 0.117188 5.710938 0.117188 Z M 5.710938 0.117188 "/></g></g></g><g fill="#f8c322" fill-opacity="1"><g transform="translate(71.68064, 207.35883)"><g><path d="M 2.941406 -8.054688 L 2.941406 -9.195312 L 1.273438 -9.195312 L 1.273438 0 L 2.941406 0 L 2.941406 -4.996094 C 2.941406 -6.59375 3.890625 -7.851562 5.640625 -7.851562 C 7.648438 -7.851562 8.105469 -6.660156 8.105469 -4.929688 L 8.105469 0 L 9.753906 0 L 9.753906 -4.945312 C 9.753906 -7.578125 8.566406 -9.332031 5.761719 -9.332031 C 4.605469 -9.332031 3.621094 -9.042969 2.941406 -8.054688 Z M 2.941406 -8.054688 "/></g></g></g><g fill="#f8c322" fill-opacity="1"><g transform="translate(82.691549, 207.35883)"><g><path d="M 1.273438 0 L 2.941406 0 L 2.941406 -11.898438 L 1.273438 -11.898438 Z M 1.273438 0 "/></g></g></g><g fill="#f8c322" fill-opacity="1"><g transform="translate(86.905607, 207.35883)"><g><path d="M 10.300781 -4.996094 C 10.113281 -7.886719 7.867188 -9.332031 5.589844 -9.332031 C 3.160156 -9.332031 0.816406 -7.75 0.816406 -4.589844 C 0.816406 -1.425781 3.195312 0.171875 5.558594 0.171875 C 7.445312 0.171875 9.332031 -0.832031 10.027344 -2.839844 L 8.3125 -2.839844 C 7.765625 -1.800781 6.714844 -1.308594 5.574219 -1.308594 C 4.199219 -1.308594 2.480469 -2.394531 2.480469 -4.199219 L 10.265625 -4.199219 C 10.300781 -4.351562 10.316406 -4.519531 10.316406 -4.707031 C 10.316406 -4.808594 10.316406 -4.894531 10.300781 -4.996094 Z M 8.546875 -5.574219 L 2.550781 -5.574219 C 2.890625 -7.207031 4.25 -7.867188 5.589844 -7.867188 C 6.917969 -7.867188 8.226562 -7.222656 8.546875 -5.574219 Z M 8.546875 -5.574219 "/></g></g></g><g fill="#f8c322" fill-opacity="1"><g transform="translate(98.120427, 207.35883)"><g><path d="M 10.824219 0 L 10.824219 -9.195312 L 9.160156 -9.195312 L 9.175781 -7.96875 C 8.363281 -9.074219 6.984375 -9.347656 5.847656 -9.347656 C 2.734375 -9.347656 0.933594 -7.121094 0.933594 -4.640625 C 0.933594 -2.105469 2.667969 0.152344 5.878906 0.152344 C 7.019531 0.136719 8.496094 -0.238281 9.160156 -1.242188 L 9.160156 0 Z M 9.160156 -4.605469 C 9.160156 -2.394531 7.375 -1.324219 5.847656 -1.324219 C 3.808594 -1.324219 2.601562 -2.90625 2.601562 -4.640625 C 2.601562 -6.457031 3.824219 -7.886719 5.847656 -7.886719 C 7.410156 -7.886719 9.160156 -6.796875 9.160156 -4.605469 Z M 9.160156 -4.605469 "/></g></g></g><g fill="#f8c322" fill-opacity="1"><g transform="translate(110.048912, 207.35883)"><g><path d="M 2.429688 -6.542969 C 2.429688 -7.496094 3.382812 -7.886719 4.402344 -7.886719 C 5.40625 -7.886719 6.269531 -7.496094 6.355469 -6.679688 L 8.003906 -6.679688 C 7.886719 -8.597656 6.269531 -9.382812 4.453125 -9.382812 C 2.667969 -9.382812 0.78125 -8.632812 0.78125 -6.507812 C 0.78125 -4.453125 2.734375 -3.941406 4.382812 -3.875 C 5.183594 -3.839844 6.609375 -3.671875 6.609375 -2.652344 C 6.609375 -1.5625 5.300781 -1.292969 4.46875 -1.292969 C 3.332031 -1.292969 2.378906 -1.800781 2.3125 -2.820312 L 0.644531 -2.820312 C 0.765625 -0.644531 2.53125 0.152344 4.4375 0.152344 C 6.167969 0.152344 8.277344 -0.476562 8.277344 -2.617188 C 8.277344 -4.707031 6.304688 -5.25 4.570312 -5.371094 C 3.757812 -5.421875 2.429688 -5.386719 2.429688 -6.542969 Z M 2.429688 -6.542969 "/></g></g></g><g fill="#f8c322" fill-opacity="1"><g transform="translate(118.90182, 207.35883)"><g><path d="M 2.871094 -8.054688 L 2.871094 -11.898438 L 1.222656 -11.898438 L 1.222656 0 L 2.871094 0 L 2.871094 -4.996094 C 2.871094 -6.59375 3.824219 -7.851562 5.574219 -7.851562 C 7.578125 -7.851562 8.039062 -6.660156 8.039062 -4.929688 L 8.039062 0 L 9.703125 0 L 9.703125 -4.945312 C 9.703125 -7.578125 8.496094 -9.332031 5.691406 -9.332031 C 4.539062 -9.332031 3.570312 -9.042969 2.871094 -8.054688 Z M 2.871094 -8.054688 "/></g></g></g><g fill="#f8c322" fill-opacity="1"><g transform="translate(129.91273, 207.35883)"><g/></g></g><g fill="#f8c322" fill-opacity="1"><g transform="translate(134.14377, 207.35883)"><g><path d="M 7.460938 -9.332031 L 5.878906 -5.234375 L 4.808594 -2.242188 L 3.773438 -5.25 L 2.105469 -9.332031 L 0.339844 -9.332031 L 3.925781 -0.476562 L 2.632812 2.839844 L 4.402344 2.839844 L 9.226562 -9.332031 Z M 7.460938 -9.332031 "/></g></g></g><g fill="#f8c322" fill-opacity="1"><g transform="translate(143.693361, 207.35883)"><g><path d="M 10.792969 -4.589844 C 10.792969 -7.75 8.34375 -9.347656 5.863281 -9.347656 C 3.363281 -9.347656 0.882812 -7.765625 0.882812 -4.589844 C 0.882812 -1.425781 3.347656 0.171875 5.8125 0.171875 C 8.3125 0.171875 10.792969 -1.410156 10.792969 -4.589844 Z M 2.550781 -4.589844 C 2.550781 -6.78125 4.199219 -7.867188 5.863281 -7.867188 C 7.496094 -7.867188 9.144531 -6.765625 9.144531 -4.589844 C 9.144531 -2.429688 7.496094 -1.324219 5.847656 -1.324219 C 4.199219 -1.324219 2.550781 -2.414062 2.550781 -4.589844 Z M 2.550781 -4.589844 "/></g></g></g><g fill="#f8c322" fill-opacity="1"><g transform="translate(155.485913, 207.35883)"><g><path d="M 8.054688 -1.207031 L 8.054688 0 L 9.636719 0 L 9.636719 -9.277344 L 7.96875 -9.277344 L 7.96875 -4.199219 C 7.96875 -2.582031 7.019531 -1.34375 5.269531 -1.34375 C 3.261719 -1.34375 2.820312 -2.53125 2.820312 -4.25 L 2.820312 -9.277344 L 1.15625 -9.277344 L 1.15625 -4.25 C 1.15625 -1.613281 2.363281 0.136719 5.148438 0.136719 C 6.339844 0.136719 7.375 -0.203125 8.054688 -1.207031 Z M 8.054688 -1.207031 "/></g></g></g><g fill="#f8c322" fill-opacity="1"><g transform="translate(166.428856, 207.35883)"><g><path d="M 2.921875 -8.054688 L 2.921875 -9.175781 L 1.273438 -9.175781 L 1.273438 0 L 2.921875 0 L 2.921875 -4.980469 C 2.921875 -6.660156 4.214844 -7.902344 5.761719 -7.902344 C 6.035156 -7.902344 6.320312 -7.867188 6.609375 -7.785156 L 6.609375 -9.246094 C 6.238281 -9.332031 5.878906 -9.382812 5.523438 -9.382812 C 4.503906 -9.382812 3.585938 -8.972656 2.921875 -8.054688 Z M 2.921875 -8.054688 "/></g></g></g><g fill="#f8c322" fill-opacity="1"><g transform="translate(173.565563, 207.35883)"><g/></g></g><g fill="#f8c322" fill-opacity="1"><g transform="translate(177.796603, 207.35883)"><g><path d="M 10.316406 -11.898438 L 8.652344 -11.898438 L 8.652344 -8.003906 C 7.851562 -9.09375 6.695312 -9.347656 5.558594 -9.347656 C 2.449219 -9.347656 0.679688 -7.273438 0.679688 -4.640625 C 0.679688 -1.902344 2.363281 0.152344 5.574219 0.152344 C 6.730469 0.136719 7.988281 -0.238281 8.652344 -1.242188 L 8.652344 0 L 10.316406 0 Z M 8.652344 -4.605469 C 8.652344 -2.394531 7.105469 -1.324219 5.539062 -1.324219 C 3.519531 -1.324219 2.34375 -2.71875 2.34375 -4.605469 C 2.34375 -6.253906 3.519531 -7.886719 5.558594 -7.886719 C 7.105469 -7.886719 8.652344 -6.796875 8.652344 -4.605469 Z M 8.652344 -4.605469 "/></g></g></g><g fill="#f8c322" fill-opacity="1"><g transform="translate(189.419234, 207.35883)"><g><path d="M 1.171875 -11.554688 C 1.171875 -10.910156 1.699219 -10.585938 2.210938 -10.585938 C 2.734375 -10.585938 3.246094 -10.910156 3.246094 -11.554688 C 3.246094 -12.203125 2.734375 -12.507812 2.226562 -12.507812 C 1.699219 -12.507812 1.171875 -12.183594 1.171875 -11.554688 Z M 1.375 -9.296875 L 3.042969 -9.296875 L 3.042969 0 L 1.375 0 Z M 1.375 -9.296875 "/></g></g></g><g fill="#f8c322" fill-opacity="1"><g transform="translate(193.990118, 207.35883)"><g><path d="M 10.484375 -0.339844 L 10.484375 -9.195312 L 8.835938 -9.195312 L 8.835938 -7.96875 C 8.15625 -8.972656 6.867188 -9.347656 5.726562 -9.347656 C 2.53125 -9.347656 0.851562 -7.085938 0.851562 -4.570312 C 0.851562 -2.074219 2.632812 -0.015625 5.726562 -0.015625 C 6.867188 -0.015625 8.023438 -0.253906 8.820312 -1.308594 L 8.820312 -0.339844 C 8.820312 1.460938 7.15625 2.140625 5.660156 2.140625 C 4.46875 2.140625 2.941406 1.765625 2.941406 0.613281 L 1.292969 0.613281 C 1.292969 2.703125 3.449219 3.621094 5.761719 3.621094 C 8.039062 3.621094 10.484375 2.515625 10.484375 -0.339844 Z M 5.710938 -1.480469 C 3.6875 -1.480469 2.53125 -2.957031 2.515625 -4.570312 C 2.515625 -6.21875 3.6875 -7.886719 5.746094 -7.886719 C 7.785156 -7.886719 8.820312 -6.492188 8.820312 -4.828125 C 8.820312 -3.128906 7.785156 -1.480469 5.710938 -1.480469 Z M 5.710938 -1.480469 "/></g></g></g><g fill="#f8c322" fill-opacity="1"><g transform="translate(205.78267, 207.35883)"><g><path d="M 1.171875 -11.554688 C 1.171875 -10.910156 1.699219 -10.585938 2.210938 -10.585938 C 2.734375 -10.585938 3.246094 -10.910156 3.246094 -11.554688 C 3.246094 -12.203125 2.734375 -12.507812 2.226562 -12.507812 C 1.699219 -12.507812 1.171875 -12.183594 1.171875 -11.554688 Z M 1.375 -9.296875 L 3.042969 -9.296875 L 3.042969 0 L 1.375 0 Z M 1.375 -9.296875 "/></g></g></g><g fill="#f8c322" fill-opacity="1"><g transform="translate(210.353554, 207.35883)"><g><path d="M 3.449219 -9.195312 L 3.449219 -11.234375 L 1.785156 -10.910156 L 1.785156 -9.195312 L 0.40625 -9.195312 L 0.40625 -7.867188 L 1.785156 -7.867188 L 1.785156 -2.703125 C 1.785156 -0.5625 2.957031 0.0507812 4.757812 0.0507812 C 4.996094 0.0507812 5.25 0.0351562 5.523438 0.015625 L 5.523438 -1.375 C 5.269531 -1.359375 5.03125 -1.34375 4.828125 -1.34375 C 3.992188 -1.34375 3.449219 -1.597656 3.449219 -2.683594 L 3.449219 -7.867188 L 5.472656 -7.867188 L 5.472656 -9.195312 Z M 3.449219 -9.195312 "/></g></g></g><g fill="#f8c322" fill-opacity="1"><g transform="translate(216.198853, 207.35883)"><g><path d="M 10.824219 0 L 10.824219 -9.195312 L 9.160156 -9.195312 L 9.175781 -7.96875 C 8.363281 -9.074219 6.984375 -9.347656 5.847656 -9.347656 C 2.734375 -9.347656 0.933594 -7.121094 0.933594 -4.640625 C 0.933594 -2.105469 2.667969 0.152344 5.878906 0.152344 C 7.019531 0.136719 8.496094 -0.238281 9.160156 -1.242188 L 9.160156 0 Z M 9.160156 -4.605469 C 9.160156 -2.394531 7.375 -1.324219 5.847656 -1.324219 C 3.808594 -1.324219 2.601562 -2.90625 2.601562 -4.640625 C 2.601562 -6.457031 3.824219 -7.886719 5.847656 -7.886719 C 7.410156 -7.886719 9.160156 -6.796875 9.160156 -4.605469 Z M 9.160156 -4.605469 "/></g></g></g><g fill="#f8c322" fill-opacity="1"><g transform="translate(228.127338, 207.35883)"><g><path d="M 1.273438 0 L 2.941406 0 L 2.941406 -11.898438 L 1.273438 -11.898438 Z M 1.273438 0 "/></g></g></g><g fill="#f8c322" fill-opacity="1"><g transform="translate(232.341396, 207.35883)"><g/></g></g><g fill="#f8c322" fill-opacity="1"><g transform="translate(236.572436, 207.35883)"><g><path d="M 1.257812 2.683594 L 2.921875 2.683594 L 2.921875 -1.207031 C 3.738281 -0.117188 4.878906 0.152344 6.015625 0.152344 C 9.125 0.152344 10.757812 -2.074219 10.757812 -4.570312 C 10.757812 -7.085938 9.226562 -9.347656 6.035156 -9.347656 C 4.878906 -9.347656 3.585938 -8.972656 2.921875 -7.96875 L 2.921875 -9.195312 L 1.257812 -9.195312 Z M 2.921875 -4.605469 C 2.921875 -6.796875 4.488281 -7.886719 6.035156 -7.886719 C 8.054688 -7.886719 9.09375 -6.269531 9.09375 -4.605469 C 9.09375 -2.957031 8.054688 -1.324219 6.015625 -1.324219 C 4.46875 -1.324219 2.921875 -2.414062 2.921875 -4.605469 Z M 2.921875 -4.605469 "/></g></g></g><g fill="#f8c322" fill-opacity="1"><g transform="translate(248.280027, 207.35883)"><g><path d="M 10.792969 -4.589844 C 10.792969 -7.75 8.34375 -9.347656 5.863281 -9.347656 C 3.363281 -9.347656 0.882812 -7.765625 0.882812 -4.589844 C 0.882812 -1.425781 3.347656 0.171875 5.8125 0.171875 C 8.3125 0.171875 10.792969 -1.410156 10.792969 -4.589844 Z M 2.550781 -4.589844 C 2.550781 -6.78125 4.199219 -7.867188 5.863281 -7.867188 C 7.496094 -7.867188 9.144531 -6.765625 9.144531 -4.589844 C 9.144531 -2.429688 7.496094 -1.324219 5.847656 -1.324219 C 4.199219 -1.324219 2.550781 -2.414062 2.550781 -4.589844 Z M 2.550781 -4.589844 "/></g></g></g><g fill="#f8c322" fill-opacity="1"><g transform="translate(260.072591, 207.35883)"><g><path d="M 3.449219 -9.195312 L 3.449219 -11.234375 L 1.785156 -10.910156 L 1.785156 -9.195312 L 0.40625 -9.195312 L 0.40625 -7.867188 L 1.785156 -7.867188 L 1.785156 -2.703125 C 1.785156 -0.5625 2.957031 0.0507812 4.757812 0.0507812 C 4.996094 0.0507812 5.25 0.0351562 5.523438 0.015625 L 5.523438 -1.375 C 5.269531 -1.359375 5.03125 -1.34375 4.828125 -1.34375 C 3.992188 -1.34375 3.449219 -1.597656 3.449219 -2.683594 L 3.449219 -7.867188 L 5.472656 -7.867188 L 5.472656 -9.195312 Z M 3.449219 -9.195312 "/></g></g></g><g fill="#f8c322" fill-opacity="1"><g transform="translate(265.917889, 207.35883)"><g><path d="M 10.300781 -4.996094 C 10.113281 -7.886719 7.867188 -9.332031 5.589844 -9.332031 C 3.160156 -9.332031 0.816406 -7.75 0.816406 -4.589844 C 0.816406 -1.425781 3.195312 0.171875 5.558594 0.171875 C 7.445312 0.171875 9.332031 -0.832031 10.027344 -2.839844 L 8.3125 -2.839844 C 7.765625 -1.800781 6.714844 -1.308594 5.574219 -1.308594 C 4.199219 -1.308594 2.480469 -2.394531 2.480469 -4.199219 L 10.265625 -4.199219 C 10.300781 -4.351562 10.316406 -4.519531 10.316406 -4.707031 C 10.316406 -4.808594 10.316406 -4.894531 10.300781 -4.996094 Z M 8.546875 -5.574219 L 2.550781 -5.574219 C 2.890625 -7.207031 4.25 -7.867188 5.589844 -7.867188 C 6.917969 -7.867188 8.226562 -7.222656 8.546875 -5.574219 Z M 8.546875 -5.574219 "/></g></g></g><g fill="#f8c322" fill-opacity="1"><g transform="translate(277.13271, 207.35883)"><g><path d="M 2.941406 -8.054688 L 2.941406 -9.195312 L 1.273438 -9.195312 L 1.273438 0 L 2.941406 0 L 2.941406 -4.996094 C 2.941406 -6.59375 3.890625 -7.851562 5.640625 -7.851562 C 7.648438 -7.851562 8.105469 -6.660156 8.105469 -4.929688 L 8.105469 0 L 9.753906 0 L 9.753906 -4.945312 C 9.753906 -7.578125 8.566406 -9.332031 5.761719 -9.332031 C 4.605469 -9.332031 3.621094 -9.042969 2.941406 -8.054688 Z M 2.941406 -8.054688 "/></g></g></g><g fill="#f8c322" fill-opacity="1"><g transform="translate(288.143619, 207.35883)"><g><path d="M 3.449219 -9.195312 L 3.449219 -11.234375 L 1.785156 -10.910156 L 1.785156 -9.195312 L 0.40625 -9.195312 L 0.40625 -7.867188 L 1.785156 -7.867188 L 1.785156 -2.703125 C 1.785156 -0.5625 2.957031 0.0507812 4.757812 0.0507812 C 4.996094 0.0507812 5.25 0.0351562 5.523438 0.015625 L 5.523438 -1.375 C 5.269531 -1.359375 5.03125 -1.34375 4.828125 -1.34375 C 3.992188 -1.34375 3.449219 -1.597656 3.449219 -2.683594 L 3.449219 -7.867188 L 5.472656 -7.867188 L 5.472656 -9.195312 Z M 3.449219 -9.195312 "/></g></g></g><g fill="#f8c322" fill-opacity="1"><g transform="translate(293.988917, 207.35883)"><g><path d="M 1.171875 -11.554688 C 1.171875 -10.910156 1.699219 -10.585938 2.210938 -10.585938 C 2.734375 -10.585938 3.246094 -10.910156 3.246094 -11.554688 C 3.246094 -12.203125 2.734375 -12.507812 2.226562 -12.507812 C 1.699219 -12.507812 1.171875 -12.183594 1.171875 -11.554688 Z M 1.375 -9.296875 L 3.042969 -9.296875 L 3.042969 0 L 1.375 0 Z M 1.375 -9.296875 "/></g></g></g><g fill="#f8c322" fill-opacity="1"><g transform="translate(298.559802, 207.35883)"><g><path d="M 10.824219 0 L 10.824219 -9.195312 L 9.160156 -9.195312 L 9.175781 -7.96875 C 8.363281 -9.074219 6.984375 -9.347656 5.847656 -9.347656 C 2.734375 -9.347656 0.933594 -7.121094 0.933594 -4.640625 C 0.933594 -2.105469 2.667969 0.152344 5.878906 0.152344 C 7.019531 0.136719 8.496094 -0.238281 9.160156 -1.242188 L 9.160156 0 Z M 9.160156 -4.605469 C 9.160156 -2.394531 7.375 -1.324219 5.847656 -1.324219 C 3.808594 -1.324219 2.601562 -2.90625 2.601562 -4.640625 C 2.601562 -6.457031 3.824219 -7.886719 5.847656 -7.886719 C 7.410156 -7.886719 9.160156 -6.796875 9.160156 -4.605469 Z M 9.160156 -4.605469 "/></g></g></g><g fill="#f8c322" fill-opacity="1"><g transform="translate(310.488298, 207.35883)"><g><path d="M 1.273438 0 L 2.941406 0 L 2.941406 -11.898438 L 1.273438 -11.898438 Z M 1.273438 0 "/></g></g></g></svg>