<svg xmlns="http://www.w3.org/2000/svg" xmlns:xlink="http://www.w3.org/1999/xlink" width="500" zoomAndPan="magnify" viewBox="0 0 375 374.999991" height="500" preserveAspectRatio="xMidYMid meet" version="1.0"><defs><g/><clipPath id="817dc33751"><path d="M 141.21875 108.191406 L 184.683594 108.191406 L 184.683594 137.28125 L 141.21875 137.28125 Z M 141.21875 108.191406 " clip-rule="nonzero"/></clipPath><clipPath id="c4dbcc302f"><path d="M 208 191.808594 L 355 191.808594 L 355 194.058594 L 208 194.058594 Z M 208 191.808594 " clip-rule="nonzero"/></clipPath><clipPath id="ef7ed721e0"><path d="M 141.199219 215.515625 L 182.449219 215.515625 L 182.449219 256.765625 L 141.199219 256.765625 Z M 141.199219 215.515625 " clip-rule="nonzero"/></clipPath><clipPath id="76ea17394e"><path d="M 31.5625 160.019531 L 64.5625 160.019531 L 64.5625 191.457031 L 31.5625 191.457031 Z M 31.5625 160.019531 " clip-rule="nonzero"/></clipPath></defs><rect x="-37.5" width="450" fill="#ffffff" y="-37.499999" height="449.999989" fill-opacity="1"/><rect x="-37.5" width="450" fill="#0c0530" y="-37.499999" height="449.999989" fill-opacity="1"/><path fill="#f8c322" d="M 162.042969 159.578125 C 163.355469 159.578125 164.664062 159.511719 165.96875 159.375 C 167.273438 159.238281 168.570312 159.03125 169.851562 158.761719 C 171.136719 158.488281 172.402344 158.152344 173.652344 157.746094 C 174.902344 157.34375 176.125 156.875 177.324219 156.34375 C 178.523438 155.8125 179.695312 155.21875 180.832031 154.5625 C 181.96875 153.910156 183.070312 153.199219 184.132812 152.429688 C 185.199219 151.660156 186.21875 150.835938 187.195312 149.960938 C 188.175781 149.085938 189.101562 148.160156 189.984375 147.1875 C 190.867188 146.214844 191.695312 145.199219 192.46875 144.140625 C 193.242188 143.082031 193.960938 141.984375 194.621094 140.851562 C 195.28125 139.714844 195.882812 138.550781 196.421875 137.355469 C 196.960938 136.15625 197.433594 134.933594 197.84375 133.6875 C 198.257812 132.441406 198.601562 131.179688 198.878906 129.894531 C 199.160156 128.613281 199.371094 127.320312 199.515625 126.015625 C 199.660156 124.710938 199.734375 123.402344 199.742188 122.089844 C 199.75 120.777344 199.6875 119.46875 199.558594 118.160156 C 199.429688 116.855469 199.230469 115.558594 198.964844 114.273438 C 198.699219 112.988281 198.371094 111.71875 197.972656 110.46875 C 197.574219 109.21875 197.113281 107.992188 196.589844 106.789062 C 196.0625 105.585938 195.476562 104.414062 194.828125 103.273438 C 194.179688 102.128906 193.472656 101.027344 192.710938 99.957031 C 191.949219 98.890625 191.128906 97.867188 190.261719 96.882812 C 189.390625 95.902344 188.46875 94.964844 187.503906 94.082031 C 186.535156 93.195312 185.523438 92.359375 184.46875 91.578125 C 183.414062 90.800781 182.320312 90.074219 181.1875 89.410156 C 180.058594 88.742188 178.894531 88.136719 177.703125 87.589844 C 176.507812 87.046875 175.289062 86.566406 174.042969 86.148438 C 172.800781 85.730469 171.539062 85.378906 170.257812 85.089844 C 168.976562 84.804688 167.683594 84.585938 166.378906 84.4375 C 165.074219 84.285156 163.769531 84.203125 162.457031 84.1875 C 161.144531 84.175781 159.832031 84.226562 158.527344 84.351562 C 157.21875 84.472656 155.921875 84.664062 154.636719 84.921875 C 153.347656 85.179688 152.078125 85.503906 150.824219 85.894531 C 149.574219 86.285156 148.34375 86.742188 147.136719 87.257812 C 145.933594 87.777344 144.757812 88.359375 143.613281 89 C 142.46875 89.640625 141.359375 90.34375 140.289062 91.101562 C 139.214844 91.855469 138.1875 92.667969 137.199219 93.535156 C 136.210938 94.398438 135.273438 95.3125 134.382812 96.277344 C 133.488281 97.238281 132.652344 98.246094 131.863281 99.296875 C 131.078125 100.347656 130.347656 101.4375 129.675781 102.566406 C 129.003906 103.691406 128.390625 104.851562 127.839844 106.042969 C 127.289062 107.234375 126.800781 108.449219 126.375 109.691406 C 125.949219 110.933594 125.59375 112.195312 125.300781 113.472656 C 125.007812 114.753906 124.78125 116.042969 124.625 117.347656 C 124.464844 118.648438 124.375 119.957031 124.355469 121.269531 C 124.332031 122.582031 124.378906 123.890625 124.496094 125.199219 C 124.613281 126.507812 124.792969 127.804688 125.046875 129.09375 C 125.296875 130.382812 125.613281 131.652344 126 132.910156 L 79.324219 156.191406 C 78.546875 155.128906 77.71875 154.109375 76.835938 153.136719 C 75.953125 152.160156 75.023438 151.230469 74.042969 150.355469 C 73.0625 149.476562 72.039062 148.652344 70.972656 147.878906 C 69.90625 147.109375 68.804688 146.394531 67.664062 145.742188 C 66.523438 145.085938 65.351562 144.492188 64.148438 143.957031 C 62.945312 143.425781 61.714844 142.957031 60.464844 142.554688 C 59.210938 142.148438 57.941406 141.8125 56.65625 141.539062 C 55.367188 141.269531 54.070312 141.066406 52.761719 140.929688 C 51.453125 140.796875 50.140625 140.726562 48.824219 140.730469 C 47.507812 140.734375 46.195312 140.804688 44.886719 140.941406 C 43.578125 141.082031 42.28125 141.289062 40.996094 141.566406 C 39.710938 141.839844 38.441406 142.183594 37.191406 142.589844 C 35.9375 143 34.714844 143.46875 33.511719 144.007812 C 32.308594 144.542969 31.140625 145.140625 30 145.800781 C 28.863281 146.460938 27.761719 147.175781 26.699219 147.949219 C 25.632812 148.726562 24.613281 149.554688 23.636719 150.433594 C 22.660156 151.316406 21.730469 152.246094 20.851562 153.222656 C 19.972656 154.203125 19.144531 155.222656 18.375 156.289062 C 17.601562 157.351562 16.886719 158.457031 16.226562 159.59375 C 15.570312 160.734375 14.976562 161.90625 14.441406 163.109375 C 13.90625 164.3125 13.433594 165.539062 13.027344 166.789062 C 12.621094 168.039062 12.285156 169.308594 12.011719 170.597656 C 11.738281 171.882812 11.53125 173.179688 11.394531 174.488281 C 11.257812 175.796875 11.1875 177.109375 11.1875 178.425781 C 11.1875 179.742188 11.257812 181.054688 11.394531 182.363281 C 11.53125 183.671875 11.738281 184.96875 12.011719 186.257812 C 12.285156 187.542969 12.621094 188.8125 13.027344 190.0625 C 13.433594 191.316406 13.90625 192.542969 14.441406 193.746094 C 14.976562 194.945312 15.570312 196.117188 16.226562 197.257812 C 16.886719 198.398438 17.601562 199.5 18.375 200.5625 C 19.144531 201.628906 19.972656 202.652344 20.851562 203.628906 C 21.730469 204.609375 22.660156 205.539062 23.636719 206.417969 C 24.613281 207.300781 25.632812 208.128906 26.699219 208.902344 C 27.761719 209.675781 28.863281 210.394531 30 211.050781 C 31.140625 211.710938 32.308594 212.308594 33.511719 212.84375 C 34.714844 213.382812 35.9375 213.855469 37.191406 214.261719 C 38.441406 214.671875 39.710938 215.011719 40.996094 215.289062 C 42.28125 215.5625 43.578125 215.769531 44.886719 215.910156 C 46.195312 216.050781 47.507812 216.121094 48.824219 216.121094 C 50.140625 216.125 51.453125 216.058594 52.761719 215.921875 C 54.070312 215.789062 55.367188 215.582031 56.65625 215.3125 C 57.941406 215.042969 59.210938 214.703125 60.464844 214.300781 C 61.714844 213.894531 62.945312 213.425781 64.148438 212.894531 C 65.351562 212.363281 66.523438 211.765625 67.664062 211.113281 C 68.804688 210.457031 69.90625 209.742188 70.972656 208.972656 C 72.039062 208.203125 73.0625 207.375 74.042969 206.5 C 75.023438 205.621094 75.953125 204.695312 76.835938 203.71875 C 77.71875 202.742188 78.546875 201.722656 79.324219 200.660156 L 126 223.945312 C 125.765625 224.695312 125.554688 225.449219 125.371094 226.214844 C 125.183594 226.976562 125.023438 227.742188 124.882812 228.515625 C 124.746094 229.289062 124.628906 230.066406 124.539062 230.847656 C 124.449219 231.625 124.382812 232.40625 124.34375 233.191406 C 124.300781 233.976562 124.28125 234.761719 124.289062 235.546875 C 124.296875 236.332031 124.328125 237.113281 124.382812 237.898438 C 124.4375 238.679688 124.519531 239.460938 124.621094 240.242188 C 124.726562 241.019531 124.855469 241.792969 125.007812 242.5625 C 125.15625 243.332031 125.332031 244.097656 125.53125 244.859375 C 125.730469 245.617188 125.953125 246.371094 126.199219 247.117188 C 126.445312 247.859375 126.714844 248.597656 127.007812 249.328125 C 127.300781 250.054688 127.613281 250.777344 127.949219 251.484375 C 128.285156 252.195312 128.644531 252.894531 129.023438 253.582031 C 129.402344 254.269531 129.804688 254.941406 130.226562 255.605469 C 130.648438 256.265625 131.089844 256.917969 131.550781 257.550781 C 132.011719 258.1875 132.492188 258.804688 132.992188 259.410156 C 133.492188 260.015625 134.011719 260.605469 134.546875 261.179688 C 135.085938 261.753906 135.640625 262.308594 136.210938 262.847656 C 136.78125 263.386719 137.367188 263.90625 137.972656 264.410156 C 138.574219 264.910156 139.195312 265.394531 139.828125 265.859375 C 140.460938 266.320312 141.109375 266.765625 141.769531 267.191406 C 142.429688 267.613281 143.101562 268.015625 143.789062 268.398438 C 144.476562 268.78125 145.171875 269.140625 145.878906 269.480469 C 146.589844 269.820312 147.308594 270.136719 148.035156 270.429688 C 148.761719 270.722656 149.5 270.996094 150.242188 271.242188 C 150.988281 271.492188 151.742188 271.71875 152.5 271.921875 C 153.257812 272.121094 154.023438 272.300781 154.792969 272.453125 C 155.5625 272.609375 156.335938 272.742188 157.113281 272.847656 C 157.890625 272.953125 158.671875 273.035156 159.453125 273.09375 C 160.238281 273.152344 161.023438 273.1875 161.808594 273.195312 C 162.59375 273.207031 163.375 273.191406 164.160156 273.152344 C 164.945312 273.113281 165.726562 273.050781 166.507812 272.960938 C 167.289062 272.875 168.066406 272.761719 168.839844 272.628906 C 169.613281 272.492188 170.378906 272.332031 171.144531 272.148438 C 171.90625 271.964844 172.664062 271.757812 173.414062 271.527344 C 174.164062 271.296875 174.90625 271.042969 175.644531 270.769531 C 176.378906 270.492188 177.101562 270.191406 177.820312 269.871094 C 178.535156 269.550781 179.242188 269.207031 179.9375 268.84375 C 180.632812 268.476562 181.316406 268.089844 181.984375 267.683594 C 182.65625 267.277344 183.316406 266.847656 183.960938 266.398438 C 184.605469 265.953125 185.234375 265.484375 185.851562 264.996094 C 186.464844 264.507812 187.066406 264.003906 187.648438 263.476562 C 188.234375 262.953125 188.800781 262.410156 189.351562 261.851562 C 189.902344 261.292969 190.4375 260.714844 190.949219 260.125 C 191.464844 259.53125 191.960938 258.921875 192.4375 258.296875 C 192.914062 257.675781 193.375 257.039062 193.8125 256.386719 C 194.25 255.734375 194.664062 255.070312 195.0625 254.390625 C 195.457031 253.714844 195.832031 253.023438 196.1875 252.324219 C 196.539062 251.621094 196.871094 250.910156 197.183594 250.1875 C 197.492188 249.46875 197.777344 248.738281 198.042969 247.996094 C 198.308594 247.257812 198.546875 246.511719 198.765625 245.757812 C 198.984375 245.003906 199.179688 244.242188 199.347656 243.476562 C 199.519531 242.710938 199.667969 241.9375 199.789062 241.164062 C 199.914062 240.386719 200.011719 239.609375 200.085938 238.828125 C 200.160156 238.046875 200.210938 237.261719 200.238281 236.476562 C 200.261719 235.695312 200.265625 234.910156 200.242188 234.125 C 200.21875 233.339844 200.171875 232.554688 200.101562 231.773438 C 200.03125 230.992188 199.9375 230.210938 199.816406 229.4375 C 199.695312 228.660156 199.554688 227.890625 199.386719 227.121094 C 199.21875 226.355469 199.027344 225.59375 198.8125 224.839844 C 198.597656 224.082031 198.363281 223.335938 198.101562 222.59375 C 197.839844 221.855469 197.554688 221.121094 197.25 220.398438 C 196.945312 219.675781 196.617188 218.964844 196.265625 218.261719 C 195.914062 217.558594 195.542969 216.867188 195.148438 216.1875 C 194.757812 215.507812 194.34375 214.839844 193.90625 214.1875 C 193.472656 213.535156 193.019531 212.894531 192.542969 212.269531 C 192.070312 211.640625 191.578125 211.03125 191.066406 210.4375 C 190.550781 209.839844 190.023438 209.261719 189.472656 208.699219 C 188.925781 208.136719 188.359375 207.59375 187.78125 207.066406 C 187.199219 206.539062 186.601562 206.03125 185.988281 205.539062 C 185.375 205.050781 184.746094 204.578125 184.101562 204.128906 C 183.460938 203.675781 182.804688 203.246094 182.136719 202.835938 C 181.464844 202.425781 180.785156 202.035156 180.089844 201.667969 C 179.398438 201.300781 178.695312 200.953125 177.976562 200.628906 C 177.261719 200.304688 176.539062 200 175.804688 199.722656 C 175.070312 199.441406 174.332031 199.183594 173.582031 198.949219 C 172.832031 198.71875 172.074219 198.507812 171.3125 198.320312 C 170.550781 198.132812 169.78125 197.96875 169.007812 197.832031 C 168.238281 197.691406 167.460938 197.578125 166.679688 197.484375 C 165.902344 197.394531 165.117188 197.328125 164.335938 197.285156 C 163.550781 197.242188 162.765625 197.222656 161.980469 197.230469 C 161.195312 197.234375 160.410156 197.265625 159.628906 197.320312 C 158.84375 197.375 158.0625 197.453125 157.285156 197.558594 C 156.507812 197.660156 155.734375 197.789062 154.960938 197.9375 C 154.191406 198.089844 153.425781 198.265625 152.667969 198.464844 C 151.90625 198.660156 151.15625 198.882812 150.410156 199.128906 C 149.664062 199.375 148.925781 199.640625 148.195312 199.933594 C 147.46875 200.222656 146.746094 200.539062 146.039062 200.875 C 145.328125 201.207031 144.628906 201.566406 143.941406 201.945312 C 143.253906 202.324219 142.578125 202.722656 141.914062 203.144531 C 141.253906 203.566406 140.605469 204.007812 139.96875 204.46875 C 139.332031 204.929688 138.710938 205.410156 138.105469 205.910156 C 137.5 206.40625 136.910156 206.925781 136.335938 207.460938 C 135.761719 207.996094 135.207031 208.550781 134.667969 209.121094 C 134.128906 209.691406 133.605469 210.28125 133.105469 210.882812 C 132.601562 211.484375 132.117188 212.101562 131.652344 212.734375 L 84.980469 189.453125 C 86.082031 185.859375 86.632812 182.183594 86.632812 178.425781 C 86.632812 174.667969 86.082031 170.992188 84.980469 167.398438 L 131.652344 144.117188 C 132.523438 145.308594 133.457031 146.445312 134.460938 147.53125 C 135.464844 148.613281 136.527344 149.632812 137.652344 150.589844 C 138.777344 151.546875 139.953125 152.4375 141.179688 153.253906 C 142.40625 154.074219 143.679688 154.816406 144.996094 155.488281 C 146.3125 156.15625 147.660156 156.746094 149.046875 157.257812 C 150.433594 157.765625 151.84375 158.195312 153.277344 158.539062 C 154.710938 158.882812 156.164062 159.144531 157.628906 159.316406 C 159.09375 159.492188 160.566406 159.578125 162.042969 159.578125 Z M 162.042969 209.839844 C 162.863281 209.839844 163.6875 209.878906 164.503906 209.960938 C 165.324219 210.042969 166.136719 210.160156 166.945312 210.324219 C 167.753906 210.484375 168.550781 210.683594 169.335938 210.921875 C 170.125 211.160156 170.898438 211.4375 171.660156 211.753906 C 172.417969 212.066406 173.164062 212.417969 173.886719 212.808594 C 174.613281 213.195312 175.320312 213.617188 176.003906 214.074219 C 176.6875 214.53125 177.347656 215.023438 177.984375 215.542969 C 178.621094 216.066406 179.230469 216.617188 179.8125 217.199219 C 180.394531 217.78125 180.945312 218.390625 181.46875 219.027344 C 181.992188 219.664062 182.480469 220.324219 182.9375 221.007812 C 183.394531 221.691406 183.816406 222.398438 184.207031 223.125 C 184.59375 223.851562 184.945312 224.59375 185.261719 225.351562 C 185.574219 226.113281 185.851562 226.886719 186.089844 227.675781 C 186.328125 228.464844 186.53125 229.261719 186.691406 230.066406 C 186.851562 230.875 186.972656 231.6875 187.050781 232.507812 C 187.132812 233.328125 187.171875 234.148438 187.171875 234.96875 C 187.171875 235.792969 187.132812 236.613281 187.050781 237.433594 C 186.972656 238.253906 186.851562 239.066406 186.691406 239.875 C 186.53125 240.679688 186.328125 241.476562 186.089844 242.265625 C 185.851562 243.054688 185.574219 243.828125 185.261719 244.585938 C 184.945312 245.347656 184.59375 246.089844 184.207031 246.816406 C 183.816406 247.542969 183.394531 248.246094 182.9375 248.933594 C 182.480469 249.617188 181.992188 250.277344 181.46875 250.914062 C 180.945312 251.550781 180.394531 252.160156 179.8125 252.742188 C 179.230469 253.324219 178.621094 253.875 177.984375 254.398438 C 177.347656 254.917969 176.6875 255.410156 176.003906 255.867188 C 175.320312 256.324219 174.613281 256.746094 173.886719 257.132812 C 173.164062 257.523438 172.417969 257.875 171.660156 258.1875 C 170.898438 258.503906 170.125 258.78125 169.335938 259.019531 C 168.550781 259.257812 167.753906 259.457031 166.945312 259.617188 C 166.136719 259.777344 165.324219 259.898438 164.503906 259.980469 C 163.6875 260.0625 162.863281 260.101562 162.042969 260.101562 C 161.21875 260.101562 160.398438 260.0625 159.578125 259.980469 C 158.761719 259.898438 157.945312 259.777344 157.140625 259.617188 C 156.332031 259.457031 155.535156 259.257812 154.746094 259.019531 C 153.960938 258.78125 153.183594 258.503906 152.425781 258.1875 C 151.664062 257.875 150.921875 257.523438 150.195312 257.132812 C 149.46875 256.746094 148.765625 256.324219 148.082031 255.867188 C 147.394531 255.410156 146.734375 254.917969 146.097656 254.398438 C 145.464844 253.875 144.855469 253.324219 144.273438 252.742188 C 143.691406 252.160156 143.136719 251.550781 142.617188 250.914062 C 142.09375 250.277344 141.605469 249.617188 141.148438 248.933594 C 140.6875 248.246094 140.265625 247.542969 139.878906 246.816406 C 139.492188 246.089844 139.140625 245.347656 138.824219 244.585938 C 138.507812 243.828125 138.234375 243.054688 137.992188 242.265625 C 137.753906 241.476562 137.554688 240.679688 137.394531 239.875 C 137.234375 239.066406 137.113281 238.253906 137.03125 237.433594 C 136.953125 236.613281 136.910156 235.792969 136.910156 234.96875 C 136.910156 234.148438 136.953125 233.328125 137.03125 232.507812 C 137.113281 231.6875 137.234375 230.875 137.394531 230.066406 C 137.554688 229.261719 137.753906 228.464844 137.992188 227.675781 C 138.234375 226.886719 138.507812 226.113281 138.824219 225.351562 C 139.140625 224.59375 139.492188 223.851562 139.878906 223.125 C 140.265625 222.398438 140.691406 221.691406 141.148438 221.007812 C 141.605469 220.324219 142.09375 219.664062 142.617188 219.027344 C 143.136719 218.390625 143.691406 217.78125 144.273438 217.199219 C 144.855469 216.617188 145.464844 216.066406 146.097656 215.542969 C 146.734375 215.023438 147.394531 214.53125 148.082031 214.074219 C 148.765625 213.617188 149.46875 213.195312 150.195312 212.808594 C 150.921875 212.417969 151.664062 212.066406 152.425781 211.753906 C 153.183594 211.4375 153.960938 211.160156 154.746094 210.921875 C 155.535156 210.683594 156.332031 210.484375 157.140625 210.324219 C 157.945312 210.160156 158.761719 210.042969 159.578125 209.960938 C 160.398438 209.878906 161.21875 209.839844 162.042969 209.839844 Z M 48.953125 203.558594 C 48.132812 203.558594 47.308594 203.515625 46.492188 203.4375 C 45.671875 203.355469 44.859375 203.234375 44.050781 203.074219 C 43.242188 202.914062 42.445312 202.714844 41.660156 202.476562 C 40.871094 202.234375 40.097656 201.960938 39.335938 201.644531 C 38.578125 201.328125 37.832031 200.976562 37.109375 200.589844 C 36.382812 200.203125 35.675781 199.777344 34.992188 199.320312 C 34.308594 198.863281 33.648438 198.375 33.011719 197.851562 C 32.375 197.332031 31.765625 196.777344 31.183594 196.195312 C 30.601562 195.613281 30.050781 195.003906 29.527344 194.371094 C 29.003906 193.734375 28.515625 193.074219 28.058594 192.386719 C 27.601562 191.703125 27.179688 191 26.789062 190.273438 C 26.402344 189.546875 26.050781 188.804688 25.734375 188.042969 C 25.421875 187.28125 25.144531 186.507812 24.90625 185.722656 C 24.667969 184.933594 24.464844 184.136719 24.304688 183.328125 C 24.144531 182.523438 24.023438 181.707031 23.945312 180.890625 C 23.863281 180.070312 23.824219 179.25 23.824219 178.425781 C 23.824219 177.601562 23.863281 176.78125 23.945312 175.964844 C 24.023438 175.144531 24.144531 174.332031 24.304688 173.523438 C 24.464844 172.714844 24.667969 171.917969 24.90625 171.132812 C 25.144531 170.34375 25.421875 169.570312 25.734375 168.808594 C 26.050781 168.050781 26.402344 167.304688 26.789062 166.578125 C 27.179688 165.855469 27.601562 165.148438 28.058594 164.464844 C 28.515625 163.78125 29.003906 163.121094 29.527344 162.484375 C 30.050781 161.847656 30.601562 161.238281 31.183594 160.65625 C 31.765625 160.074219 32.375 159.523438 33.011719 159 C 33.648438 158.476562 34.308594 157.988281 34.992188 157.53125 C 35.675781 157.074219 36.382812 156.652344 37.109375 156.261719 C 37.832031 155.875 38.578125 155.523438 39.335938 155.207031 C 40.097656 154.894531 40.871094 154.617188 41.660156 154.378906 C 42.445312 154.140625 43.242188 153.9375 44.050781 153.777344 C 44.859375 153.617188 45.671875 153.496094 46.492188 153.417969 C 47.308594 153.335938 48.132812 153.296875 48.953125 153.296875 C 49.777344 153.296875 50.597656 153.335938 51.417969 153.417969 C 52.234375 153.496094 53.050781 153.617188 53.855469 153.777344 C 54.664062 153.9375 55.460938 154.140625 56.25 154.378906 C 57.035156 154.617188 57.8125 154.894531 58.570312 155.207031 C 59.332031 155.523438 60.074219 155.875 60.800781 156.261719 C 61.527344 156.652344 62.230469 157.074219 62.914062 157.53125 C 63.601562 157.988281 64.261719 158.476562 64.898438 159 C 65.53125 159.523438 66.140625 160.074219 66.722656 160.65625 C 67.304688 161.238281 67.859375 161.847656 68.378906 162.484375 C 68.902344 163.121094 69.390625 163.78125 69.847656 164.464844 C 70.308594 165.148438 70.730469 165.855469 71.117188 166.578125 C 71.503906 167.304688 71.855469 168.050781 72.171875 168.808594 C 72.488281 169.570312 72.761719 170.34375 73.003906 171.132812 C 73.242188 171.917969 73.441406 172.714844 73.601562 173.523438 C 73.761719 174.332031 73.882812 175.144531 73.964844 175.964844 C 74.042969 176.78125 74.085938 177.601562 74.085938 178.425781 C 74.085938 179.25 74.042969 180.070312 73.964844 180.890625 C 73.882812 181.707031 73.761719 182.523438 73.601562 183.328125 C 73.441406 184.136719 73.242188 184.933594 73.003906 185.722656 C 72.761719 186.507812 72.488281 187.28125 72.171875 188.042969 C 71.855469 188.804688 71.503906 189.546875 71.117188 190.273438 C 70.730469 191 70.308594 191.703125 69.847656 192.386719 C 69.390625 193.074219 68.902344 193.734375 68.378906 194.367188 C 67.859375 195.003906 67.304688 195.613281 66.722656 196.195312 C 66.140625 196.777344 65.53125 197.332031 64.898438 197.851562 C 64.261719 198.375 63.601562 198.863281 62.914062 199.320312 C 62.230469 199.777344 61.527344 200.203125 60.800781 200.589844 C 60.074219 200.976562 59.332031 201.328125 58.570312 201.644531 C 57.8125 201.960938 57.035156 202.234375 56.25 202.476562 C 55.460938 202.714844 54.664062 202.914062 53.855469 203.074219 C 53.050781 203.234375 52.234375 203.355469 51.417969 203.4375 C 50.597656 203.515625 49.777344 203.558594 48.953125 203.558594 Z M 162.042969 96.75 C 162.863281 96.75 163.6875 96.792969 164.503906 96.871094 C 165.324219 96.953125 166.136719 97.074219 166.945312 97.234375 C 167.753906 97.394531 168.550781 97.59375 169.335938 97.832031 C 170.125 98.074219 170.898438 98.347656 171.660156 98.664062 C 172.417969 98.980469 173.164062 99.332031 173.886719 99.71875 C 174.613281 100.105469 175.320312 100.53125 176.003906 100.988281 C 176.6875 101.445312 177.347656 101.933594 177.984375 102.457031 C 178.621094 102.976562 179.230469 103.53125 179.8125 104.113281 C 180.394531 104.695312 180.945312 105.304688 181.46875 105.941406 C 181.992188 106.574219 182.480469 107.234375 182.9375 107.921875 C 183.394531 108.605469 183.816406 109.308594 184.207031 110.035156 C 184.59375 110.761719 184.945312 111.503906 185.261719 112.265625 C 185.574219 113.027344 185.851562 113.800781 186.089844 114.585938 C 186.328125 115.375 186.53125 116.171875 186.691406 116.980469 C 186.851562 117.785156 186.972656 118.601562 187.050781 119.417969 C 187.132812 120.238281 187.171875 121.058594 187.171875 121.882812 C 187.171875 122.707031 187.132812 123.527344 187.050781 124.34375 C 186.972656 125.164062 186.851562 125.976562 186.691406 126.785156 C 186.53125 127.59375 186.328125 128.390625 186.089844 129.175781 C 185.851562 129.964844 185.574219 130.738281 185.261719 131.5 C 184.945312 132.261719 184.59375 133.003906 184.207031 133.730469 C 183.816406 134.453125 183.394531 135.160156 182.9375 135.84375 C 182.480469 136.527344 181.992188 137.1875 181.46875 137.824219 C 180.945312 138.460938 180.394531 139.070312 179.8125 139.652344 C 179.230469 140.234375 178.621094 140.785156 177.984375 141.308594 C 177.347656 141.832031 176.6875 142.320312 176.003906 142.777344 C 175.320312 143.234375 174.613281 143.65625 173.886719 144.046875 C 173.164062 144.433594 172.417969 144.785156 171.660156 145.101562 C 170.898438 145.414062 170.125 145.691406 169.335938 145.929688 C 168.550781 146.167969 167.753906 146.371094 166.945312 146.53125 C 166.136719 146.691406 165.324219 146.8125 164.503906 146.890625 C 163.6875 146.972656 162.863281 147.011719 162.042969 147.011719 C 161.21875 147.011719 160.398438 146.972656 159.578125 146.890625 C 158.761719 146.8125 157.945312 146.691406 157.140625 146.53125 C 156.332031 146.371094 155.535156 146.167969 154.746094 145.929688 C 153.960938 145.691406 153.183594 145.414062 152.425781 145.101562 C 151.664062 144.785156 150.921875 144.433594 150.195312 144.046875 C 149.46875 143.65625 148.765625 143.234375 148.082031 142.777344 C 147.394531 142.320312 146.734375 141.832031 146.097656 141.308594 C 145.464844 140.785156 144.855469 140.234375 144.273438 139.652344 C 143.691406 139.070312 143.136719 138.460938 142.617188 137.824219 C 142.09375 137.1875 141.605469 136.527344 141.148438 135.84375 C 140.6875 135.160156 140.265625 134.453125 139.878906 133.730469 C 139.492188 133.003906 139.140625 132.261719 138.824219 131.5 C 138.507812 130.738281 138.234375 129.964844 137.992188 129.175781 C 137.753906 128.390625 137.554688 127.59375 137.394531 126.785156 C 137.234375 125.976562 137.113281 125.164062 137.03125 124.34375 C 136.953125 123.527344 136.910156 122.707031 136.910156 121.882812 C 136.910156 121.058594 136.953125 120.238281 137.03125 119.417969 C 137.113281 118.601562 137.234375 117.785156 137.394531 116.980469 C 137.554688 116.171875 137.753906 115.375 137.992188 114.585938 C 138.234375 113.800781 138.507812 113.027344 138.824219 112.265625 C 139.140625 111.503906 139.492188 110.761719 139.878906 110.035156 C 140.265625 109.308594 140.691406 108.605469 141.148438 107.921875 C 141.605469 107.234375 142.09375 106.574219 142.617188 105.941406 C 143.136719 105.304688 143.691406 104.695312 144.273438 104.113281 C 144.855469 103.53125 145.464844 102.976562 146.097656 102.457031 C 146.734375 101.933594 147.394531 101.445312 148.082031 100.988281 C 148.765625 100.53125 149.46875 100.105469 150.195312 99.71875 C 150.921875 99.332031 151.664062 98.980469 152.425781 98.664062 C 153.183594 98.347656 153.960938 98.074219 154.746094 97.832031 C 155.535156 97.59375 156.332031 97.394531 157.140625 97.234375 C 157.945312 97.074219 158.761719 96.953125 159.578125 96.871094 C 160.398438 96.792969 161.21875 96.75 162.042969 96.75 Z M 162.042969 96.75 " fill-opacity="1" fill-rule="nonzero"/><g clip-path="url(#817dc33751)"><path fill="#fffefd" d="M 144.644531 122.765625 C 145.230469 123.070312 145.746094 123.488281 146.101562 124.078125 C 146.722656 125.101562 146.8125 126.71875 146.8125 127.886719 L 146.8125 131.488281 C 146.8125 132.191406 146.859375 133.6875 147.367188 134.246094 C 147.84375 134.769531 148.925781 134.839844 149.578125 134.839844 C 149.675781 134.839844 149.78125 134.832031 149.878906 134.824219 C 150 134.816406 150.128906 134.808594 150.25 134.808594 L 150.695312 134.808594 L 150.695312 137.28125 L 149.546875 137.28125 C 148.175781 137.28125 146.265625 137.117188 145.253906 136.0625 C 144.210938 134.980469 144.089844 132.753906 144.089844 131.339844 L 144.089844 127.695312 C 144.089844 126.792969 143.992188 125.457031 143.355469 124.75 C 142.921875 124.269531 142.230469 124.078125 141.609375 124.003906 L 141.21875 123.953125 L 141.21875 121.546875 L 141.609375 121.496094 C 142.230469 121.421875 142.921875 121.230469 143.355469 120.75 C 143.992188 120.042969 144.089844 118.699219 144.089844 117.796875 L 144.089844 114.171875 C 144.089844 112.746094 144.214844 110.53125 145.257812 109.433594 C 146.273438 108.359375 148.15625 108.191406 149.546875 108.191406 L 150.695312 108.191406 L 150.695312 110.660156 L 149.699219 110.660156 C 149.03125 110.660156 147.875 110.730469 147.382812 111.261719 C 146.863281 111.824219 146.8125 113.3125 146.8125 114.023438 L 146.8125 117.644531 C 146.8125 118.808594 146.71875 120.425781 146.101562 121.449219 C 145.746094 122.035156 145.230469 122.460938 144.644531 122.765625 Z M 181.257812 122.765625 C 180.671875 122.460938 180.15625 122.035156 179.800781 121.449219 C 179.183594 120.425781 179.089844 118.808594 179.089844 117.644531 L 179.089844 114.023438 C 179.089844 113.3125 179.042969 111.824219 178.523438 111.261719 C 178.027344 110.730469 176.875 110.660156 176.203125 110.660156 L 175.210938 110.660156 L 175.210938 108.191406 L 176.355469 108.191406 C 177.746094 108.191406 179.628906 108.359375 180.644531 109.433594 C 181.6875 110.53125 181.8125 112.746094 181.8125 114.171875 L 181.8125 117.796875 C 181.8125 118.699219 181.914062 120.042969 182.550781 120.75 C 182.980469 121.230469 183.675781 121.421875 184.292969 121.496094 L 184.683594 121.546875 L 184.683594 123.953125 L 184.292969 124.003906 C 183.671875 124.078125 182.980469 124.269531 182.546875 124.75 C 181.910156 125.457031 181.8125 126.792969 181.8125 127.695312 L 181.8125 131.339844 C 181.8125 132.753906 181.691406 134.980469 180.648438 136.0625 C 179.636719 137.117188 177.726562 137.28125 176.355469 137.28125 L 175.210938 137.28125 L 175.210938 134.808594 L 175.652344 134.808594 C 175.777344 134.808594 175.902344 134.816406 176.023438 134.824219 C 176.125 134.832031 176.226562 134.839844 176.324219 134.839844 C 176.976562 134.839844 178.058594 134.769531 178.535156 134.246094 C 179.042969 133.6875 179.089844 132.191406 179.089844 131.488281 L 179.089844 127.886719 C 179.089844 126.71875 179.183594 125.101562 179.800781 124.078125 C 180.15625 123.488281 180.671875 123.070312 181.257812 122.765625 " fill-opacity="1" fill-rule="evenodd"/></g><path fill="#fffefd" d="M 167.878906 128.40625 L 167.878906 126.152344 L 176.699219 126.152344 L 176.699219 128.40625 L 167.878906 128.40625 " fill-opacity="1" fill-rule="evenodd"/><path fill="#fffefd" d="M 149.773438 122.71875 L 154.523438 125.835938 L 154.523438 128.796875 L 147.179688 123.828125 L 147.179688 121.585938 L 154.523438 116.679688 L 154.523438 119.632812 L 149.773438 122.71875 " fill-opacity="1" fill-rule="evenodd"/><path fill="#fffefd" d="M 167.257812 122.71875 L 162.507812 119.632812 L 162.507812 116.679688 L 169.855469 121.585938 L 169.855469 123.828125 L 162.507812 128.796875 L 162.507812 125.835938 L 167.257812 122.71875 " fill-opacity="1" fill-rule="evenodd"/><path fill="#fffefd" d="M 162.71875 113.648438 L 156.882812 132.507812 L 154.316406 131.820312 L 160.148438 112.964844 L 162.71875 113.648438 " fill-opacity="1" fill-rule="evenodd"/><g fill="#fffefd" fill-opacity="1"><g transform="translate(243.065936, 187.294543)"><g><path d="M 1.34375 -30.46875 L 9.75 -30.46875 C 11.925781 -30.46875 13.554688 -29.863281 14.640625 -28.65625 C 15.734375 -27.445312 16.289062 -25.660156 16.3125 -23.296875 L 16.390625 -9.046875 C 16.410156 -6.046875 15.890625 -3.785156 14.828125 -2.265625 C 13.765625 -0.753906 12.003906 0 9.546875 0 L 1.34375 0 Z M 8.546875 -5.390625 C 9.660156 -5.390625 10.21875 -5.929688 10.21875 -7.015625 L 10.21875 -22.734375 C 10.21875 -23.421875 10.160156 -23.9375 10.046875 -24.28125 C 9.941406 -24.625 9.75 -24.851562 9.46875 -24.96875 C 9.1875 -25.082031 8.75 -25.140625 8.15625 -25.140625 L 7.484375 -25.140625 L 7.484375 -5.390625 Z M 8.546875 -5.390625 "/></g></g></g><g fill="#fffefd" fill-opacity="1"><g transform="translate(260.553915, 187.294543)"><g><path d="M 8.515625 0.28125 C 5.835938 0.28125 3.921875 -0.445312 2.765625 -1.90625 C 1.609375 -3.375 1.03125 -5.566406 1.03125 -8.484375 L 1.03125 -18.90625 C 1.03125 -21.289062 1.710938 -23.109375 3.078125 -24.359375 C 4.453125 -25.617188 6.367188 -26.25 8.828125 -26.25 C 13.816406 -26.25 16.3125 -23.800781 16.3125 -18.90625 L 16.3125 -17.03125 C 16.3125 -15.132812 16.289062 -13.597656 16.25 -12.421875 L 7.234375 -12.421875 L 7.234375 -7.375 C 7.234375 -6.476562 7.328125 -5.773438 7.515625 -5.265625 C 7.703125 -4.753906 8.101562 -4.5 8.71875 -4.5 C 9.195312 -4.5 9.535156 -4.640625 9.734375 -4.921875 C 9.929688 -5.210938 10.046875 -5.539062 10.078125 -5.90625 C 10.117188 -6.269531 10.140625 -6.804688 10.140625 -7.515625 L 10.140625 -10.03125 L 16.3125 -10.03125 L 16.3125 -8.546875 C 16.3125 -5.523438 15.722656 -3.296875 14.546875 -1.859375 C 13.378906 -0.429688 11.367188 0.28125 8.515625 0.28125 Z M 10.140625 -15.5 L 10.140625 -18.828125 C 10.140625 -20.703125 9.679688 -21.640625 8.765625 -21.640625 C 7.722656 -21.640625 7.203125 -20.703125 7.203125 -18.828125 L 7.203125 -15.5 Z M 10.140625 -15.5 "/></g></g></g><g fill="#fffefd" fill-opacity="1"><g transform="translate(277.864533, 187.294543)"><g><path d="M 1.203125 -27.703125 L 1.203125 -32.03125 L 7.40625 -32.03125 L 7.40625 -27.703125 Z M 1.203125 0 L 1.203125 -25.96875 L 7.40625 -25.96875 L 7.40625 0 Z M 1.203125 0 "/></g></g></g><g fill="#fffefd" fill-opacity="1"><g transform="translate(286.484371, 187.294543)"><g><path d="M 8.375 0.28125 C 3.238281 0.28125 0.671875 -2.316406 0.671875 -7.515625 L 0.703125 -9.578125 L 6.921875 -9.578125 L 6.953125 -6.53125 C 6.953125 -5.914062 7.066406 -5.445312 7.296875 -5.125 C 7.535156 -4.800781 7.929688 -4.640625 8.484375 -4.640625 C 9.304688 -4.640625 9.71875 -5.316406 9.71875 -6.671875 C 9.71875 -7.660156 9.519531 -8.4375 9.125 -9 C 8.738281 -9.570312 8.117188 -10.175781 7.265625 -10.8125 L 3.96875 -13.375 C 2.832031 -14.25 2.015625 -15.148438 1.515625 -16.078125 C 1.023438 -17.015625 0.78125 -18.335938 0.78125 -20.046875 C 0.78125 -21.367188 1.128906 -22.492188 1.828125 -23.421875 C 2.523438 -24.359375 3.453125 -25.0625 4.609375 -25.53125 C 5.765625 -26.007812 7.054688 -26.25 8.484375 -26.25 C 13.515625 -26.25 16.03125 -23.742188 16.03125 -18.734375 L 16.03125 -18.234375 L 9.609375 -18.234375 L 9.609375 -19.21875 C 9.609375 -19.832031 9.507812 -20.359375 9.3125 -20.796875 C 9.113281 -21.234375 8.773438 -21.453125 8.296875 -21.453125 C 7.867188 -21.453125 7.539062 -21.328125 7.3125 -21.078125 C 7.09375 -20.835938 6.984375 -20.503906 6.984375 -20.078125 C 6.984375 -19.128906 7.351562 -18.394531 8.09375 -17.875 L 11.921875 -15.078125 C 13.285156 -14.054688 14.332031 -12.945312 15.0625 -11.75 C 15.800781 -10.5625 16.171875 -9.054688 16.171875 -7.234375 C 16.171875 -4.828125 15.484375 -2.972656 14.109375 -1.671875 C 12.742188 -0.367188 10.832031 0.28125 8.375 0.28125 Z M 8.375 0.28125 "/></g></g></g><g fill="#fffefd" fill-opacity="1"><g transform="translate(303.333839, 187.294543)"><g><path d="M 8.796875 0.28125 C 3.617188 0.28125 1.03125 -2.398438 1.03125 -7.765625 L 1.03125 -18.203125 C 1.03125 -20.660156 1.71875 -22.613281 3.09375 -24.0625 C 4.476562 -25.519531 6.378906 -26.25 8.796875 -26.25 C 11.210938 -26.25 13.109375 -25.519531 14.484375 -24.0625 C 15.867188 -22.613281 16.5625 -20.660156 16.5625 -18.203125 L 16.5625 -7.765625 C 16.5625 -2.398438 13.972656 0.28125 8.796875 0.28125 Z M 8.796875 -4.5 C 9.296875 -4.5 9.660156 -4.675781 9.890625 -5.03125 C 10.128906 -5.382812 10.25 -5.867188 10.25 -6.484375 L 10.25 -19.1875 C 10.25 -20.695312 9.765625 -21.453125 8.796875 -21.453125 C 7.828125 -21.453125 7.34375 -20.695312 7.34375 -19.1875 L 7.34375 -6.484375 C 7.34375 -5.867188 7.457031 -5.382812 7.6875 -5.03125 C 7.925781 -4.675781 8.296875 -4.5 8.796875 -4.5 Z M 8.796875 -4.5 "/></g></g></g><g clip-path="url(#c4dbcc302f)"><path fill="#fffefd" d="M 354.550781 193.03125 C 354.550781 193.03125 347.710938 192.867188 336.980469 192.65625 C 329.683594 192.511719 320.589844 192.332031 310.628906 192.167969 C 305.90625 192.09375 300.992188 192.019531 295.984375 191.960938 C 291.164062 191.90625 286.253906 191.855469 281.34375 191.835938 C 277.421875 191.816406 273.503906 191.808594 269.628906 191.832031 C 263.605469 191.867188 257.695312 191.953125 252.058594 192.042969 C 245.78125 192.140625 239.847656 192.261719 234.488281 192.378906 C 218.847656 192.722656 208.136719 193.03125 208.136719 193.03125 C 208.136719 193.03125 218.847656 193.339844 234.488281 193.683594 C 239.847656 193.800781 245.78125 193.921875 252.058594 194.019531 C 257.695312 194.105469 263.605469 194.191406 269.628906 194.226562 C 273.503906 194.25 277.421875 194.242188 281.34375 194.226562 C 286.253906 194.203125 291.164062 194.152344 295.984375 194.097656 C 300.992188 194.039062 305.90625 193.96875 310.628906 193.890625 C 320.589844 193.726562 329.683594 193.550781 336.980469 193.40625 C 347.710938 193.191406 354.550781 193.03125 354.550781 193.03125 Z M 354.550781 193.03125 " fill-opacity="1" fill-rule="evenodd"/></g><g clip-path="url(#ef7ed721e0)"><path fill="#fffefd" d="M 161.976562 215.515625 C 150.5 215.515625 141.199219 224.816406 141.199219 236.292969 C 141.199219 247.769531 150.5 257.070312 161.976562 257.070312 C 173.453125 257.070312 182.753906 247.769531 182.753906 236.292969 C 182.734375 224.816406 173.4375 215.515625 161.976562 215.515625 Z M 173.941406 242.101562 C 173.707031 243.632812 172.375 244.746094 170.828125 244.746094 L 153.109375 244.746094 C 151.5625 244.746094 150.230469 243.632812 149.996094 242.101562 C 149.78125 240.683594 149.5625 238.703125 149.546875 236.273438 C 149.5625 233.847656 149.761719 231.886719 149.996094 230.445312 C 150.230469 228.917969 151.5625 227.800781 153.109375 227.800781 L 170.828125 227.800781 C 172.375 227.800781 173.707031 228.917969 173.941406 230.445312 C 174.15625 231.867188 174.371094 233.847656 174.390625 236.273438 C 174.371094 238.703125 174.15625 240.683594 173.941406 242.101562 Z M 173.941406 242.101562 " fill-opacity="1" fill-rule="nonzero"/></g><path fill="#fffefd" d="M 159.351562 232.910156 L 159.351562 239.65625 L 165.628906 236.292969 Z M 159.351562 232.910156 " fill-opacity="1" fill-rule="nonzero"/><path fill="#ffffff" d="M 61.710938 180.847656 L 60.757812 181.140625 L 61.359375 181.925781 C 61.632812 182.285156 61.777344 182.710938 61.777344 183.15625 C 61.777344 184.160156 61.050781 185.007812 60.046875 185.171875 L 59.097656 185.332031 L 59.539062 186.175781 C 59.695312 186.46875 59.773438 186.785156 59.773438 187.113281 C 59.773438 188.195312 58.921875 189.085938 57.832031 189.15625 L 45.878906 189.160156 C 45.839844 189.160156 44.394531 189.132812 43.335938 188.242188 C 43.105469 188.046875 42.894531 187.910156 42.671875 187.8125 L 42.417969 187.695312 L 42.417969 176.777344 L 43.664062 175.722656 L 47.871094 168.019531 C 48.054688 167.714844 48.191406 167.386719 48.277344 167.046875 C 48.363281 166.699219 48.390625 166.339844 48.363281 165.976562 L 48.03125 161.65625 C 48.320312 161.492188 48.648438 161.402344 48.984375 161.402344 C 50.800781 161.402344 52.359375 164.269531 52.359375 166.621094 C 52.359375 166.945312 52.332031 167.273438 52.285156 167.59375 L 51.554688 172.273438 L 60.675781 172.273438 C 61.257812 172.273438 61.832031 172.511719 62.253906 172.929688 C 62.644531 173.320312 62.859375 173.820312 62.855469 174.335938 C 62.851562 174.972656 62.550781 175.5625 62.03125 175.953125 L 61.183594 176.589844 L 62.109375 177.105469 C 62.757812 177.472656 63.164062 178.15625 63.164062 178.890625 C 63.164062 179.792969 62.578125 180.578125 61.710938 180.847656 " fill-opacity="1" fill-rule="nonzero"/><path fill="#4f60b5" d="M 32.308594 174.628906 C 32.285156 174.628906 32.261719 174.648438 32.261719 174.667969 L 32.261719 190.726562 C 32.261719 190.746094 32.285156 190.765625 32.308594 190.765625 L 41.671875 190.765625 C 41.691406 190.765625 41.714844 190.746094 41.714844 190.726562 L 41.714844 174.667969 C 41.714844 174.648438 41.691406 174.628906 41.671875 174.628906 L 32.308594 174.628906 " fill-opacity="1" fill-rule="nonzero"/><g clip-path="url(#76ea17394e)"><path fill="#393536" d="M 61.710938 180.847656 L 60.757812 181.140625 L 61.359375 181.925781 C 61.632812 182.285156 61.777344 182.710938 61.777344 183.15625 C 61.777344 184.160156 61.050781 185.007812 60.046875 185.171875 L 59.097656 185.332031 L 59.539062 186.175781 C 59.695312 186.46875 59.773438 186.785156 59.773438 187.113281 C 59.773438 188.195312 58.921875 189.085938 57.832031 189.15625 L 45.878906 189.160156 C 45.839844 189.160156 44.394531 189.132812 43.335938 188.242188 C 43.105469 188.046875 42.894531 187.910156 42.671875 187.8125 L 42.417969 187.695312 L 42.417969 176.777344 L 43.664062 175.722656 L 47.871094 168.019531 C 48.054688 167.714844 48.191406 167.386719 48.277344 167.046875 C 48.363281 166.699219 48.390625 166.339844 48.363281 165.976562 L 48.03125 161.65625 C 48.320312 161.492188 48.648438 161.402344 48.984375 161.402344 C 50.800781 161.402344 52.359375 164.269531 52.359375 166.621094 C 52.359375 166.945312 52.332031 167.273438 52.285156 167.59375 L 51.554688 172.273438 L 60.675781 172.273438 C 61.257812 172.273438 61.832031 172.511719 62.253906 172.929688 C 62.644531 173.320312 62.859375 173.820312 62.855469 174.335938 C 62.851562 174.972656 62.550781 175.5625 62.03125 175.953125 L 61.183594 176.589844 L 62.109375 177.105469 C 62.757812 177.472656 63.164062 178.15625 63.164062 178.890625 C 63.164062 179.792969 62.578125 180.578125 61.710938 180.847656 Z M 41.015625 190.035156 C 41.015625 190.054688 40.996094 190.074219 40.976562 190.074219 L 33.003906 190.074219 C 32.984375 190.074219 32.964844 190.054688 32.964844 190.035156 L 32.964844 175.175781 C 32.964844 175.15625 32.984375 175.136719 33.003906 175.136719 L 40.976562 175.136719 C 40.996094 175.136719 41.015625 175.15625 41.015625 175.175781 Z M 64.566406 178.890625 C 64.566406 177.957031 64.179688 177.074219 63.519531 176.4375 C 63.988281 175.847656 64.25 175.117188 64.257812 174.34375 C 64.261719 173.457031 63.90625 172.609375 63.246094 171.957031 C 62.566406 171.277344 61.628906 170.886719 60.675781 170.886719 L 53.1875 170.886719 L 53.671875 167.800781 C 53.730469 167.414062 53.761719 167.015625 53.761719 166.621094 C 53.761719 163.566406 51.675781 160.019531 48.984375 160.019531 C 48.207031 160.019531 47.449219 160.289062 46.851562 160.78125 L 46.574219 161.011719 L 46.964844 166.082031 C 46.980469 166.300781 46.964844 166.511719 46.914062 166.722656 C 46.863281 166.929688 46.78125 167.128906 46.664062 167.3125 L 42.554688 174.839844 L 42.398438 174.96875 C 42.296875 174.28125 41.699219 173.753906 40.976562 173.753906 L 33.003906 173.753906 C 32.207031 173.753906 31.5625 174.390625 31.5625 175.175781 L 31.5625 190.035156 C 31.5625 190.820312 32.207031 191.457031 33.003906 191.457031 L 40.976562 191.457031 C 41.769531 191.457031 42.417969 190.820312 42.417969 190.035156 L 42.417969 189.289062 C 42.421875 189.289062 42.421875 189.292969 42.425781 189.296875 C 43.898438 190.53125 45.796875 190.542969 45.875 190.542969 L 57.855469 190.539062 L 57.894531 190.539062 C 59.734375 190.4375 61.175781 188.933594 61.175781 187.113281 C 61.175781 186.839844 61.140625 186.570312 61.078125 186.308594 C 62.332031 185.777344 63.179688 184.558594 63.179688 183.15625 C 63.179688 182.691406 63.085938 182.242188 62.90625 181.820312 C 63.921875 181.210938 64.566406 180.113281 64.566406 178.890625 " fill-opacity="1" fill-rule="nonzero"/></g><g fill="#f8c322" fill-opacity="1"><g transform="translate(199.718282, 204.396315)"><g><path d="M 3.695312 0.078125 C 5.015625 0.078125 6.53125 -0.738281 6.53125 -2.296875 L 6.53125 -7.773438 L 5.410156 -7.773438 L 5.410156 -2.308594 C 5.410156 -1.460938 4.496094 -1.035156 3.695312 -1.035156 C 2.878906 -1.035156 1.96875 -1.453125 1.96875 -2.296875 L 1.96875 -7.773438 L 0.847656 -7.773438 L 0.847656 -2.308594 C 0.847656 -0.738281 2.34375 0.078125 3.695312 0.078125 Z M 3.695312 0.078125 "/></g></g></g><g fill="#f8c322" fill-opacity="1"><g transform="translate(207.094067, 204.396315)"><g><path d="M 1.902344 -5.210938 L 1.902344 -5.949219 L 0.824219 -5.949219 L 0.824219 0 L 1.902344 0 L 1.902344 -3.234375 C 1.902344 -4.265625 2.519531 -5.078125 3.648438 -5.078125 C 4.949219 -5.078125 5.246094 -4.308594 5.246094 -3.1875 L 5.246094 0 L 6.3125 0 L 6.3125 -3.199219 C 6.3125 -4.902344 5.542969 -6.035156 3.726562 -6.035156 C 2.980469 -6.035156 2.34375 -5.847656 1.902344 -5.210938 Z M 1.902344 -5.210938 "/></g></g></g><g fill="#f8c322" fill-opacity="1"><g transform="translate(214.21703, 204.396315)"><g><path d="M 0.824219 0 L 1.902344 0 L 1.902344 -7.695312 L 0.824219 -7.695312 Z M 0.824219 0 "/></g></g></g><g fill="#f8c322" fill-opacity="1"><g transform="translate(216.943104, 204.396315)"><g><path d="M 6.664062 -3.234375 C 6.542969 -5.101562 5.089844 -6.035156 3.617188 -6.035156 C 2.046875 -6.035156 0.527344 -5.015625 0.527344 -2.96875 C 0.527344 -0.921875 2.066406 0.109375 3.59375 0.109375 C 4.816406 0.109375 6.035156 -0.539062 6.488281 -1.835938 L 5.375 -1.835938 C 5.023438 -1.164062 4.34375 -0.847656 3.605469 -0.847656 C 2.714844 -0.847656 1.605469 -1.550781 1.605469 -2.714844 L 6.640625 -2.714844 C 6.664062 -2.816406 6.675781 -2.925781 6.675781 -3.046875 C 6.675781 -3.113281 6.675781 -3.167969 6.664062 -3.234375 Z M 5.53125 -3.605469 L 1.648438 -3.605469 C 1.871094 -4.660156 2.75 -5.089844 3.617188 -5.089844 C 4.476562 -5.089844 5.320312 -4.671875 5.53125 -3.605469 Z M 5.53125 -3.605469 "/></g></g></g><g fill="#f8c322" fill-opacity="1"><g transform="translate(224.197971, 204.396315)"><g><path d="M 7.003906 0 L 7.003906 -5.949219 L 5.925781 -5.949219 L 5.9375 -5.15625 C 5.410156 -5.871094 4.519531 -6.046875 3.78125 -6.046875 C 1.769531 -6.046875 0.605469 -4.605469 0.605469 -3 C 0.605469 -1.363281 1.726562 0.0976562 3.804688 0.0976562 C 4.539062 0.0898438 5.496094 -0.152344 5.925781 -0.800781 L 5.925781 0 Z M 5.925781 -2.980469 C 5.925781 -1.550781 4.773438 -0.859375 3.78125 -0.859375 C 2.460938 -0.859375 1.683594 -1.878906 1.683594 -3 C 1.683594 -4.179688 2.472656 -5.101562 3.78125 -5.101562 C 4.792969 -5.101562 5.925781 -4.398438 5.925781 -2.980469 Z M 5.925781 -2.980469 "/></g></g></g><g fill="#f8c322" fill-opacity="1"><g transform="translate(231.914515, 204.396315)"><g><path d="M 1.574219 -4.234375 C 1.574219 -4.847656 2.1875 -5.101562 2.847656 -5.101562 C 3.496094 -5.101562 4.058594 -4.847656 4.113281 -4.320312 L 5.179688 -4.320312 C 5.101562 -5.5625 4.058594 -6.070312 2.878906 -6.070312 C 1.726562 -6.070312 0.503906 -5.585938 0.503906 -4.210938 C 0.503906 -2.878906 1.769531 -2.550781 2.835938 -2.507812 C 3.351562 -2.484375 4.277344 -2.375 4.277344 -1.714844 C 4.277344 -1.011719 3.429688 -0.835938 2.890625 -0.835938 C 2.15625 -0.835938 1.539062 -1.164062 1.496094 -1.824219 L 0.417969 -1.824219 C 0.496094 -0.417969 1.636719 0.0976562 2.871094 0.0976562 C 3.992188 0.0976562 5.355469 -0.308594 5.355469 -1.691406 C 5.355469 -3.046875 4.078125 -3.398438 2.957031 -3.472656 C 2.429688 -3.507812 1.574219 -3.484375 1.574219 -4.234375 Z M 1.574219 -4.234375 "/></g></g></g><g fill="#f8c322" fill-opacity="1"><g transform="translate(237.641471, 204.396315)"><g><path d="M 1.859375 -5.210938 L 1.859375 -7.695312 L 0.792969 -7.695312 L 0.792969 0 L 1.859375 0 L 1.859375 -3.234375 C 1.859375 -4.265625 2.472656 -5.078125 3.605469 -5.078125 C 4.902344 -5.078125 5.199219 -4.308594 5.199219 -3.1875 L 5.199219 0 L 6.277344 0 L 6.277344 -3.199219 C 6.277344 -4.902344 5.496094 -6.035156 3.683594 -6.035156 C 2.9375 -6.035156 2.308594 -5.847656 1.859375 -5.210938 Z M 1.859375 -5.210938 "/></g></g></g><g fill="#f8c322" fill-opacity="1"><g transform="translate(244.764433, 204.396315)"><g/></g></g><g fill="#f8c322" fill-opacity="1"><g transform="translate(247.501493, 204.396315)"><g><path d="M 4.828125 -6.035156 L 3.804688 -3.386719 L 3.113281 -1.453125 L 2.441406 -3.398438 L 1.363281 -6.035156 L 0.21875 -6.035156 L 2.539062 -0.308594 L 1.703125 1.835938 L 2.847656 1.835938 L 5.96875 -6.035156 Z M 4.828125 -6.035156 "/></g></g></g><g fill="#f8c322" fill-opacity="1"><g transform="translate(253.679128, 204.396315)"><g><path d="M 6.980469 -2.96875 C 6.980469 -5.015625 5.398438 -6.046875 3.792969 -6.046875 C 2.175781 -6.046875 0.570312 -5.023438 0.570312 -2.96875 C 0.570312 -0.921875 2.164062 0.109375 3.761719 0.109375 C 5.375 0.109375 6.980469 -0.914062 6.980469 -2.96875 Z M 1.648438 -2.96875 C 1.648438 -4.386719 2.714844 -5.089844 3.792969 -5.089844 C 4.847656 -5.089844 5.914062 -4.375 5.914062 -2.96875 C 5.914062 -1.574219 4.847656 -0.859375 3.78125 -0.859375 C 2.714844 -0.859375 1.648438 -1.5625 1.648438 -2.96875 Z M 1.648438 -2.96875 "/></g></g></g><g fill="#f8c322" fill-opacity="1"><g transform="translate(261.307736, 204.396315)"><g><path d="M 5.210938 -0.78125 L 5.210938 0 L 6.234375 0 L 6.234375 -6.003906 L 5.15625 -6.003906 L 5.15625 -2.714844 C 5.15625 -1.671875 4.539062 -0.867188 3.410156 -0.867188 C 2.109375 -0.867188 1.824219 -1.636719 1.824219 -2.75 L 1.824219 -6.003906 L 0.746094 -6.003906 L 0.746094 -2.75 C 0.746094 -1.042969 1.527344 0.0898438 3.332031 0.0898438 C 4.101562 0.0898438 4.773438 -0.132812 5.210938 -0.78125 Z M 5.210938 -0.78125 "/></g></g></g><g fill="#f8c322" fill-opacity="1"><g transform="translate(268.386731, 204.396315)"><g><path d="M 1.890625 -5.210938 L 1.890625 -5.9375 L 0.824219 -5.9375 L 0.824219 0 L 1.890625 0 L 1.890625 -3.222656 C 1.890625 -4.308594 2.726562 -5.113281 3.726562 -5.113281 C 3.902344 -5.113281 4.089844 -5.089844 4.277344 -5.035156 L 4.277344 -5.980469 C 4.035156 -6.035156 3.804688 -6.070312 3.574219 -6.070312 C 2.914062 -6.070312 2.320312 -5.804688 1.890625 -5.210938 Z M 1.890625 -5.210938 "/></g></g></g><g fill="#f8c322" fill-opacity="1"><g transform="translate(273.003472, 204.396315)"><g/></g></g><g fill="#f8c322" fill-opacity="1"><g transform="translate(275.740532, 204.396315)"><g><path d="M 6.675781 -7.695312 L 5.597656 -7.695312 L 5.597656 -5.179688 C 5.078125 -5.882812 4.332031 -6.046875 3.59375 -6.046875 C 1.582031 -6.046875 0.441406 -4.707031 0.441406 -3 C 0.441406 -1.230469 1.527344 0.0976562 3.605469 0.0976562 C 4.355469 0.0898438 5.167969 -0.152344 5.597656 -0.800781 L 5.597656 0 L 6.675781 0 Z M 5.597656 -2.980469 C 5.597656 -1.550781 4.597656 -0.859375 3.585938 -0.859375 C 2.277344 -0.859375 1.515625 -1.757812 1.515625 -2.980469 C 1.515625 -4.046875 2.277344 -5.101562 3.59375 -5.101562 C 4.597656 -5.101562 5.597656 -4.398438 5.597656 -2.980469 Z M 5.597656 -2.980469 "/></g></g></g><g fill="#f8c322" fill-opacity="1"><g transform="translate(283.25922, 204.396315)"><g><path d="M 0.757812 -7.476562 C 0.757812 -7.058594 1.097656 -6.851562 1.429688 -6.851562 C 1.769531 -6.851562 2.101562 -7.058594 2.101562 -7.476562 C 2.101562 -7.894531 1.769531 -8.09375 1.441406 -8.09375 C 1.097656 -8.09375 0.757812 -7.882812 0.757812 -7.476562 Z M 0.890625 -6.015625 L 1.96875 -6.015625 L 1.96875 0 L 0.890625 0 Z M 0.890625 -6.015625 "/></g></g></g><g fill="#f8c322" fill-opacity="1"><g transform="translate(286.216133, 204.396315)"><g><path d="M 6.785156 -0.21875 L 6.785156 -5.949219 L 5.71875 -5.949219 L 5.71875 -5.15625 C 5.277344 -5.804688 4.441406 -6.046875 3.707031 -6.046875 C 1.636719 -6.046875 0.550781 -4.585938 0.550781 -2.957031 C 0.550781 -1.339844 1.703125 -0.0117188 3.707031 -0.0117188 C 4.441406 -0.0117188 5.191406 -0.164062 5.707031 -0.847656 L 5.707031 -0.21875 C 5.707031 0.945312 4.628906 1.386719 3.660156 1.386719 C 2.890625 1.386719 1.902344 1.144531 1.902344 0.394531 L 0.835938 0.394531 C 0.835938 1.75 2.230469 2.34375 3.726562 2.34375 C 5.199219 2.34375 6.785156 1.628906 6.785156 -0.21875 Z M 3.695312 -0.957031 C 2.386719 -0.957031 1.636719 -1.914062 1.628906 -2.957031 C 1.628906 -4.023438 2.386719 -5.101562 3.714844 -5.101562 C 5.035156 -5.101562 5.707031 -4.199219 5.707031 -3.121094 C 5.707031 -2.023438 5.035156 -0.957031 3.695312 -0.957031 Z M 3.695312 -0.957031 "/></g></g></g><g fill="#f8c322" fill-opacity="1"><g transform="translate(293.844741, 204.396315)"><g><path d="M 0.757812 -7.476562 C 0.757812 -7.058594 1.097656 -6.851562 1.429688 -6.851562 C 1.769531 -6.851562 2.101562 -7.058594 2.101562 -7.476562 C 2.101562 -7.894531 1.769531 -8.09375 1.441406 -8.09375 C 1.097656 -8.09375 0.757812 -7.882812 0.757812 -7.476562 Z M 0.890625 -6.015625 L 1.96875 -6.015625 L 1.96875 0 L 0.890625 0 Z M 0.890625 -6.015625 "/></g></g></g><g fill="#f8c322" fill-opacity="1"><g transform="translate(296.801654, 204.396315)"><g><path d="M 2.230469 -5.949219 L 2.230469 -7.269531 L 1.15625 -7.058594 L 1.15625 -5.949219 L 0.265625 -5.949219 L 0.265625 -5.089844 L 1.15625 -5.089844 L 1.15625 -1.75 C 1.15625 -0.363281 1.914062 0.03125 3.078125 0.03125 C 3.234375 0.03125 3.398438 0.0234375 3.574219 0.0117188 L 3.574219 -0.890625 C 3.410156 -0.878906 3.253906 -0.867188 3.121094 -0.867188 C 2.582031 -0.867188 2.230469 -1.035156 2.230469 -1.738281 L 2.230469 -5.089844 L 3.539062 -5.089844 L 3.539062 -5.949219 Z M 2.230469 -5.949219 "/></g></g></g><g fill="#f8c322" fill-opacity="1"><g transform="translate(300.582976, 204.396315)"><g><path d="M 7.003906 0 L 7.003906 -5.949219 L 5.925781 -5.949219 L 5.9375 -5.15625 C 5.410156 -5.871094 4.519531 -6.046875 3.78125 -6.046875 C 1.769531 -6.046875 0.605469 -4.605469 0.605469 -3 C 0.605469 -1.363281 1.726562 0.0976562 3.804688 0.0976562 C 4.539062 0.0898438 5.496094 -0.152344 5.925781 -0.800781 L 5.925781 0 Z M 5.925781 -2.980469 C 5.925781 -1.550781 4.773438 -0.859375 3.78125 -0.859375 C 2.460938 -0.859375 1.683594 -1.878906 1.683594 -3 C 1.683594 -4.179688 2.472656 -5.101562 3.78125 -5.101562 C 4.792969 -5.101562 5.925781 -4.398438 5.925781 -2.980469 Z M 5.925781 -2.980469 "/></g></g></g><g fill="#f8c322" fill-opacity="1"><g transform="translate(308.29952, 204.396315)"><g><path d="M 0.824219 0 L 1.902344 0 L 1.902344 -7.695312 L 0.824219 -7.695312 Z M 0.824219 0 "/></g></g></g><g fill="#f8c322" fill-opacity="1"><g transform="translate(311.025594, 204.396315)"><g/></g></g><g fill="#f8c322" fill-opacity="1"><g transform="translate(313.762655, 204.396315)"><g><path d="M 0.8125 1.738281 L 1.890625 1.738281 L 1.890625 -0.78125 C 2.417969 -0.078125 3.15625 0.0976562 3.890625 0.0976562 C 5.90625 0.0976562 6.960938 -1.339844 6.960938 -2.957031 C 6.960938 -4.585938 5.96875 -6.046875 3.902344 -6.046875 C 3.15625 -6.046875 2.320312 -5.804688 1.890625 -5.15625 L 1.890625 -5.949219 L 0.8125 -5.949219 Z M 1.890625 -2.980469 C 1.890625 -4.398438 2.902344 -5.101562 3.902344 -5.101562 C 5.210938 -5.101562 5.882812 -4.058594 5.882812 -2.980469 C 5.882812 -1.914062 5.210938 -0.859375 3.890625 -0.859375 C 2.890625 -0.859375 1.890625 -1.5625 1.890625 -2.980469 Z M 1.890625 -2.980469 "/></g></g></g><g fill="#f8c322" fill-opacity="1"><g transform="translate(321.336297, 204.396315)"><g><path d="M 6.980469 -2.96875 C 6.980469 -5.015625 5.398438 -6.046875 3.792969 -6.046875 C 2.175781 -6.046875 0.570312 -5.023438 0.570312 -2.96875 C 0.570312 -0.921875 2.164062 0.109375 3.761719 0.109375 C 5.375 0.109375 6.980469 -0.914062 6.980469 -2.96875 Z M 1.648438 -2.96875 C 1.648438 -4.386719 2.714844 -5.089844 3.792969 -5.089844 C 4.847656 -5.089844 5.914062 -4.375 5.914062 -2.96875 C 5.914062 -1.574219 4.847656 -0.859375 3.78125 -0.859375 C 2.714844 -0.859375 1.648438 -1.5625 1.648438 -2.96875 Z M 1.648438 -2.96875 "/></g></g></g><g fill="#f8c322" fill-opacity="1"><g transform="translate(328.964905, 204.396315)"><g><path d="M 2.230469 -5.949219 L 2.230469 -7.269531 L 1.15625 -7.058594 L 1.15625 -5.949219 L 0.265625 -5.949219 L 0.265625 -5.089844 L 1.15625 -5.089844 L 1.15625 -1.75 C 1.15625 -0.363281 1.914062 0.03125 3.078125 0.03125 C 3.234375 0.03125 3.398438 0.0234375 3.574219 0.0117188 L 3.574219 -0.890625 C 3.410156 -0.878906 3.253906 -0.867188 3.121094 -0.867188 C 2.582031 -0.867188 2.230469 -1.035156 2.230469 -1.738281 L 2.230469 -5.089844 L 3.539062 -5.089844 L 3.539062 -5.949219 Z M 2.230469 -5.949219 "/></g></g></g><g fill="#f8c322" fill-opacity="1"><g transform="translate(332.746227, 204.396315)"><g><path d="M 6.664062 -3.234375 C 6.542969 -5.101562 5.089844 -6.035156 3.617188 -6.035156 C 2.046875 -6.035156 0.527344 -5.015625 0.527344 -2.96875 C 0.527344 -0.921875 2.066406 0.109375 3.59375 0.109375 C 4.816406 0.109375 6.035156 -0.539062 6.488281 -1.835938 L 5.375 -1.835938 C 5.023438 -1.164062 4.34375 -0.847656 3.605469 -0.847656 C 2.714844 -0.847656 1.605469 -1.550781 1.605469 -2.714844 L 6.640625 -2.714844 C 6.664062 -2.816406 6.675781 -2.925781 6.675781 -3.046875 C 6.675781 -3.113281 6.675781 -3.167969 6.664062 -3.234375 Z M 5.53125 -3.605469 L 1.648438 -3.605469 C 1.871094 -4.660156 2.75 -5.089844 3.617188 -5.089844 C 4.476562 -5.089844 5.320312 -4.671875 5.53125 -3.605469 Z M 5.53125 -3.605469 "/></g></g></g><g fill="#f8c322" fill-opacity="1"><g transform="translate(340.001095, 204.396315)"><g><path d="M 1.902344 -5.210938 L 1.902344 -5.949219 L 0.824219 -5.949219 L 0.824219 0 L 1.902344 0 L 1.902344 -3.234375 C 1.902344 -4.265625 2.519531 -5.078125 3.648438 -5.078125 C 4.949219 -5.078125 5.246094 -4.308594 5.246094 -3.1875 L 5.246094 0 L 6.3125 0 L 6.3125 -3.199219 C 6.3125 -4.902344 5.542969 -6.035156 3.726562 -6.035156 C 2.980469 -6.035156 2.34375 -5.847656 1.902344 -5.210938 Z M 1.902344 -5.210938 "/></g></g></g><g fill="#f8c322" fill-opacity="1"><g transform="translate(347.124057, 204.396315)"><g><path d="M 2.230469 -5.949219 L 2.230469 -7.269531 L 1.15625 -7.058594 L 1.15625 -5.949219 L 0.265625 -5.949219 L 0.265625 -5.089844 L 1.15625 -5.089844 L 1.15625 -1.75 C 1.15625 -0.363281 1.914062 0.03125 3.078125 0.03125 C 3.234375 0.03125 3.398438 0.0234375 3.574219 0.0117188 L 3.574219 -0.890625 C 3.410156 -0.878906 3.253906 -0.867188 3.121094 -0.867188 C 2.582031 -0.867188 2.230469 -1.035156 2.230469 -1.738281 L 2.230469 -5.089844 L 3.539062 -5.089844 L 3.539062 -5.949219 Z M 2.230469 -5.949219 "/></g></g></g><g fill="#f8c322" fill-opacity="1"><g transform="translate(350.905379, 204.396315)"><g><path d="M 0.757812 -7.476562 C 0.757812 -7.058594 1.097656 -6.851562 1.429688 -6.851562 C 1.769531 -6.851562 2.101562 -7.058594 2.101562 -7.476562 C 2.101562 -7.894531 1.769531 -8.09375 1.441406 -8.09375 C 1.097656 -8.09375 0.757812 -7.882812 0.757812 -7.476562 Z M 0.890625 -6.015625 L 1.96875 -6.015625 L 1.96875 0 L 0.890625 0 Z M 0.890625 -6.015625 "/></g></g></g><g fill="#f8c322" fill-opacity="1"><g transform="translate(353.862292, 204.396315)"><g><path d="M 7.003906 0 L 7.003906 -5.949219 L 5.925781 -5.949219 L 5.9375 -5.15625 C 5.410156 -5.871094 4.519531 -6.046875 3.78125 -6.046875 C 1.769531 -6.046875 0.605469 -4.605469 0.605469 -3 C 0.605469 -1.363281 1.726562 0.0976562 3.804688 0.0976562 C 4.539062 0.0898438 5.496094 -0.152344 5.925781 -0.800781 L 5.925781 0 Z M 5.925781 -2.980469 C 5.925781 -1.550781 4.773438 -0.859375 3.78125 -0.859375 C 2.460938 -0.859375 1.683594 -1.878906 1.683594 -3 C 1.683594 -4.179688 2.472656 -5.101562 3.78125 -5.101562 C 4.792969 -5.101562 5.925781 -4.398438 5.925781 -2.980469 Z M 5.925781 -2.980469 "/></g></g></g><g fill="#f8c322" fill-opacity="1"><g transform="translate(361.578837, 204.396315)"><g><path d="M 0.824219 0 L 1.902344 0 L 1.902344 -7.695312 L 0.824219 -7.695312 Z M 0.824219 0 "/></g></g></g></svg>